<?xml version="1.0" encoding="UTF-8" standalone="no"?><!DOCTYPE svg PUBLIC "-//W3C//DTD SVG 1.1//EN" "http://www.w3.org/Graphics/SVG/1.1/DTD/svg11.dtd"><svg width="100%" height="100%" viewBox="0 0 203 21" version="1.1" xmlns="http://www.w3.org/2000/svg" xmlns:xlink="http://www.w3.org/1999/xlink" xml:space="preserve" xmlns:serif="http://www.serif.com/" style="fill-rule:evenodd;clip-rule:evenodd;stroke-linejoin:round;stroke-miterlimit:2;"><path d="M6.333,17.436l0,-4.596l-1.439,0l0,4.676c0,1.086 -0.584,1.681 -1.682,1.681c-1.201,0 -1.784,-0.56 -1.784,-1.681l0,-4.676l-1.428,0l0,4.596c0,1.383 0.252,2.012 1.028,2.549c0.572,0.388 1.189,0.548 2.139,0.548c0.938,0 1.578,-0.171 2.127,-0.548c0.788,-0.548 1.039,-1.166 1.039,-2.549m9.612,3.017l0,-7.613l-1.359,0l0,5.602l-0.069,-0.137l-0.068,-0.194c-0.012,-0.023 -0.035,-0.069 -0.069,-0.149c-0.034,-0.08 -0.068,-0.137 -0.08,-0.16l-3.168,-4.962l-1.657,0l0,7.545l1.371,0l0,-5.533c0.034,0.126 0.057,0.172 0.103,0.263c0.011,0.011 0.045,0.069 0.091,0.16c0.092,0.16 0.138,0.263 0.16,0.297l3.237,4.881l1.508,0Zm10.106,-3.864c0,-0.983 -0.365,-1.944 -1.016,-2.641c-0.743,-0.789 -1.635,-1.108 -3.065,-1.108l-2.8,0l0,7.544l2.788,0c1.362,0 2.357,-0.365 3.054,-1.107c0.662,-0.709 1.039,-1.681 1.039,-2.688m-1.553,0.012c0,1.612 -0.961,2.516 -2.677,2.516l-1.144,0l0,-5.01l1.144,0c0.824,0 1.407,0.149 1.807,0.446c0.538,0.401 0.87,1.19 0.87,2.048m9.877,-3.761l-1.439,0l0,7.545l1.439,0l0,-7.545Zm9.69,7.613l0,-7.613l-1.36,0l0,5.602l-0.068,-0.137l-0.069,-0.194c-0.011,-0.023 -0.034,-0.069 -0.068,-0.149c-0.035,-0.08 -0.069,-0.137 -0.08,-0.16l-3.169,-4.962l-1.656,0l0,7.545l1.37,0l0,-5.533c0.035,0.126 0.057,0.172 0.103,0.263c0.012,0.011 0.046,0.069 0.092,0.16c0.091,0.16 0.137,0.263 0.16,0.297l3.237,4.881l1.508,0Zm8.309,-6.391l0,-1.222l-5.966,0l0,1.222l2.263,0l0,6.322l1.44,0l0,-6.322l2.263,0Zm7.046,6.322l0,-1.222l-3.305,0l0,-2.013l2.584,0l0,-1.222l-2.584,0l0,-1.865l3.156,0l0,-1.222l-4.595,0l0,7.544l4.744,0Zm8.171,0l-1.874,-3.235c0.629,-0.171 0.891,-0.331 1.177,-0.697c0.274,-0.365 0.411,-0.834 0.411,-1.418c0,-0.709 -0.205,-1.258 -0.617,-1.635c-0.445,-0.422 -0.948,-0.559 -2.046,-0.559l-2.515,0l0,7.544l1.439,0l0,-3.018l0.721,0l1.727,3.018l1.577,0Zm-1.771,-5.315c0,0.755 -0.4,1.075 -1.315,1.075l-0.939,0l0,-2.082l0.939,0c0.938,0 1.315,0.286 1.315,1.007m10.369,5.315l-2.733,-7.544l-1.292,0l-2.733,7.544l1.51,0l0.617,-1.863l2.527,0l0.594,1.863l1.51,0Zm-2.493,-3.085l-1.749,0l0.869,-2.733l0.88,2.733Zm10.326,3.085l-2.733,-3.874l2.596,-3.67l-1.658,0l-2.367,3.521l0,-3.521l-1.439,0l0,7.544l1.439,0l0,-3.588l2.516,3.588l1.646,0Zm7.659,-6.322l0,-1.222l-5.966,0l0,1.222l2.263,0l0,6.322l1.44,0l0,-6.322l2.263,0Zm3.724,-1.222l-1.439,0l0,7.545l1.439,0l0,-7.545Zm8.841,0l-1.509,0l-1.646,5.099l-0.046,0.092c-0.023,0.057 -0.034,0.091 -0.034,0.194l0.011,0.08l-0.034,-0.137l-0.023,-0.126l-0.023,-0.103l-1.727,-5.099l-1.577,0l2.801,7.762l1.006,0l2.801,-7.762Zm7.016,7.544l0,-1.222l-3.304,0l0,-2.013l2.584,0l0,-1.222l-2.584,0l0,-1.865l3.156,0l0,-1.222l-4.595,0l0,7.544l4.743,0Zm11.765,-7.042c-0.503,-0.24 -0.708,-0.32 -1.074,-0.434c-0.468,-0.137 -0.914,-0.194 -1.417,-0.194c-0.881,0 -1.35,0.126 -1.899,0.502c-0.24,0.172 -0.434,0.366 -0.559,0.56c-0.183,0.286 -0.297,0.674 -0.297,1.052c0,0.823 0.411,1.327 1.748,2.093l1.167,0.663c0.492,0.275 0.663,0.492 0.663,0.812c0,0.458 -0.434,0.755 -1.098,0.755c-0.298,0 -0.709,-0.08 -1.087,-0.217c-0.297,-0.115 -0.525,-0.229 -1.074,-0.526l-0.605,1.326c0.217,0.102 0.388,0.182 0.491,0.228c0.788,0.365 1.04,0.457 1.577,0.525c0.217,0.035 0.446,0.046 0.675,0.046c1.67,0 2.652,-0.788 2.652,-2.137c0,-0.526 -0.194,-1.029 -0.514,-1.349c-0.354,-0.355 -1.108,-0.835 -2.264,-1.453c-0.538,-0.286 -0.721,-0.48 -0.721,-0.8c0,-0.424 0.435,-0.698 1.11,-0.698c0.504,0 1.155,0.183 1.955,0.537l0.571,-1.291Zm8.089,-0.502l-1.577,0l-1.589,2.95l-1.508,-2.95l-1.578,0l2.298,4.31l0,3.234l1.439,0l0,-3.234l2.515,-4.31Zm6.898,0.502c-0.503,-0.24 -0.708,-0.32 -1.074,-0.434c-0.468,-0.137 -0.914,-0.194 -1.418,-0.194c-0.881,0 -1.349,0.126 -1.898,0.502c-0.24,0.172 -0.434,0.366 -0.559,0.56c-0.183,0.286 -0.297,0.674 -0.297,1.052c0,0.823 0.411,1.327 1.748,2.093l1.167,0.663c0.492,0.275 0.663,0.492 0.663,0.812c0,0.458 -0.434,0.755 -1.098,0.755c-0.298,0 -0.71,-0.08 -1.087,-0.217c-0.297,-0.115 -0.525,-0.229 -1.074,-0.526l-0.605,1.326c0.217,0.102 0.388,0.182 0.491,0.228c0.788,0.365 1.04,0.457 1.577,0.525c0.217,0.035 0.446,0.046 0.675,0.046c1.67,0 2.652,-0.788 2.652,-2.137c0,-0.526 -0.194,-1.029 -0.514,-1.349c-0.354,-0.355 -1.108,-0.835 -2.264,-1.453c-0.538,-0.286 -0.721,-0.48 -0.721,-0.8c0,-0.424 0.435,-0.698 1.11,-0.698c0.504,0 1.155,0.183 1.955,0.537l0.571,-1.291Zm7.912,0.72l0,-1.222l-5.967,0l0,1.222l2.264,0l0,6.322l1.439,0l0,-6.322l2.264,0Zm7.045,6.322l0,-1.222l-3.304,0l0,-2.013l2.584,0l0,-1.222l-2.584,0l0,-1.865l3.156,0l0,-1.222l-4.595,0l0,7.544l4.743,0Zm10.584,0l0,-7.544l-1.725,0l-2.093,5.385c-0.068,0.183 -0.091,0.229 -0.137,0.583c-0.034,-0.286 -0.069,-0.366 -0.149,-0.583l-2.013,-5.385l-1.725,0l0,7.544l1.302,0l0,-5.578c0.115,0.641 0.126,0.766 0.286,1.201l1.578,4.377l1.293,0l1.727,-4.457c0.24,-0.629 0.229,-0.686 0.286,-1.075l0,5.532l1.37,0Zm8.003,0l0,-1.222l-3.305,0l0,-2.013l2.584,0l0,-1.222l-2.584,0l0,-1.865l3.156,0l0,-1.222l-4.595,0l0,7.544l4.744,0Z" style="fill:#5f93a1;fill-rule:nonzero;"/><path d="M21.855,1.406l-1.439,0l0,7.545l1.439,0l0,-7.545Zm9.69,7.614l0,-7.614l-1.359,0l0,5.603l-0.069,-0.137l-0.068,-0.195c-0.012,-0.023 -0.035,-0.068 -0.069,-0.148c-0.034,-0.08 -0.069,-0.137 -0.08,-0.16l-3.168,-4.963l-1.657,0l0,7.546l1.371,0l0,-5.533c0.034,0.126 0.057,0.171 0.103,0.263c0.011,0.011 0.045,0.068 0.091,0.16c0.092,0.16 0.137,0.263 0.16,0.297l3.237,4.881l1.508,0Zm8.12,-7.111c-0.503,-0.24 -0.708,-0.32 -1.074,-0.434c-0.468,-0.137 -0.914,-0.194 -1.418,-0.194c-0.881,0 -1.349,0.125 -1.898,0.502c-0.24,0.172 -0.434,0.366 -0.56,0.56c-0.182,0.285 -0.297,0.674 -0.297,1.052c0,0.823 0.412,1.326 1.748,2.093l1.168,0.663c0.492,0.274 0.663,0.492 0.663,0.812c0,0.457 -0.435,0.755 -1.098,0.755c-0.298,0 -0.71,-0.08 -1.087,-0.217c-0.297,-0.115 -0.525,-0.229 -1.074,-0.527l-0.605,1.326c0.217,0.103 0.388,0.183 0.491,0.229c0.788,0.365 1.04,0.457 1.577,0.525c0.217,0.034 0.446,0.046 0.675,0.046c1.67,0 2.652,-0.788 2.652,-2.137c0,-0.526 -0.194,-1.029 -0.514,-1.35c-0.354,-0.354 -1.108,-0.834 -2.264,-1.452c-0.538,-0.286 -0.721,-0.48 -0.721,-0.801c0,-0.423 0.435,-0.697 1.11,-0.697c0.504,0 1.155,0.183 1.955,0.537l0.571,-1.291Zm7.912,0.719l0,-1.222l-5.967,0l0,1.222l2.264,0l0,6.323l1.439,0l0,-6.323l2.264,0Zm3.724,-1.222l-1.439,0l0,7.545l1.439,0l0,-7.545Zm8.234,1.222l0,-1.222l-5.967,0l0,1.222l2.264,0l0,6.323l1.439,0l0,-6.323l2.264,0Zm8.537,3.375l0,-4.597l-1.439,0l0,4.677c0,1.086 -0.583,1.681 -1.681,1.681c-1.201,0 -1.785,-0.561 -1.785,-1.681l0,-4.677l-1.427,0l0,4.597c0,1.383 0.251,2.012 1.028,2.549c0.571,0.388 1.189,0.548 2.138,0.548c0.938,0 1.579,-0.171 2.127,-0.548c0.788,-0.549 1.039,-1.166 1.039,-2.549m8.172,-3.375l0,-1.222l-5.967,0l0,1.222l2.264,0l0,6.323l1.439,0l0,-6.323l2.264,0Zm11.411,0l0,-1.222l-4.675,0l0,7.545l1.439,0l0,-3.167l2.652,0l0,-1.21l-2.652,0l0,-1.946l3.236,0Zm7.219,-1.988c0,-0.354 -0.286,-0.628 -0.629,-0.628c-0.342,0 -0.616,0.274 -0.616,0.628c0,0.342 0.274,0.616 0.616,0.616c0.343,0 0.629,-0.274 0.629,-0.616m-2.332,-0.012c0,-0.342 -0.275,-0.628 -0.629,-0.628c-0.344,0 -0.618,0.286 -0.618,0.628c0,0.343 0.274,0.617 0.618,0.617c0.354,0 0.629,-0.274 0.629,-0.617m3.761,5.374l0,-4.597l-1.441,0l0,4.677c0,1.087 -0.582,1.682 -1.679,1.682c-1.202,0 -1.785,-0.561 -1.785,-1.682l0,-4.677l-1.428,0l0,4.597c0,1.384 0.251,2.013 1.028,2.55c0.571,0.388 1.189,0.548 2.139,0.548c0.937,0 1.577,-0.171 2.125,-0.548c0.789,-0.549 1.041,-1.166 1.041,-2.55m8.57,2.949l-1.873,-3.235c0.628,-0.172 0.891,-0.331 1.176,-0.697c0.274,-0.365 0.412,-0.835 0.412,-1.418c0,-0.709 -0.206,-1.258 -0.617,-1.635c-0.446,-0.422 -0.948,-0.56 -2.047,-0.56l-2.514,0l0,7.545l1.439,0l0,-3.018l0.721,0l1.727,3.018l1.576,0Zm-1.77,-5.316c0,0.755 -0.401,1.076 -1.316,1.076l-0.938,0l0,-2.083l0.938,0c0.938,0 1.316,0.286 1.316,1.007m16.497,5.316l0,-7.545l-1.725,0l-2.093,5.386c-0.069,0.183 -0.092,0.228 -0.137,0.583c-0.035,-0.286 -0.069,-0.366 -0.149,-0.583l-2.013,-5.386l-1.725,0l0,7.545l1.302,0l0,-5.578c0.114,0.64 0.126,0.766 0.286,1.201l1.578,4.377l1.292,0l1.727,-4.457c0.24,-0.629 0.229,-0.686 0.286,-1.075l0,5.532l1.371,0Zm9.48,-2.948l0,-4.597l-1.439,0l0,4.677c0,1.086 -0.583,1.681 -1.681,1.681c-1.201,0 -1.785,-0.561 -1.785,-1.681l0,-4.677l-1.427,0l0,4.597c0,1.383 0.251,2.012 1.028,2.549c0.571,0.388 1.189,0.548 2.138,0.548c0.938,0 1.579,-0.171 2.127,-0.548c0.788,-0.549 1.039,-1.166 1.039,-2.549m7.633,2.948l0,-1.222l-3.087,0l0,-6.323l-1.439,0l0,7.545l4.526,0Zm6.67,-6.323l0,-1.222l-5.967,0l0,1.222l2.264,0l0,6.323l1.439,0l0,-6.323l2.264,0Zm3.723,-1.222l-1.439,0l0,7.545l1.439,0l0,-7.545Zm11.062,7.545l0,-7.545l-1.725,0l-2.093,5.386c-0.068,0.183 -0.091,0.228 -0.137,0.583c-0.034,-0.286 -0.069,-0.366 -0.149,-0.583l-2.013,-5.386l-1.725,0l0,7.545l1.302,0l0,-5.578c0.115,0.64 0.126,0.766 0.286,1.201l1.578,4.377l1.293,0l1.727,-4.457c0.24,-0.629 0.228,-0.686 0.286,-1.075l0,5.532l1.37,0Zm8.002,0l0,-1.222l-3.304,0l0,-2.013l2.584,0l0,-1.222l-2.584,0l0,-1.866l3.156,0l0,-1.222l-4.595,0l0,7.545l4.743,0Zm9.554,-3.795c0,-0.984 -0.365,-1.944 -1.016,-2.642c-0.743,-0.788 -1.635,-1.108 -3.065,-1.108l-2.8,0l0,7.545l2.789,0c1.361,0 2.356,-0.365 3.053,-1.108c0.662,-0.708 1.039,-1.681 1.039,-2.687m-1.553,0.011c0,1.613 -0.961,2.517 -2.677,2.517l-1.144,0l0,-5.01l1.144,0c0.824,0 1.407,0.149 1.807,0.446c0.538,0.4 0.87,1.19 0.87,2.047m5.61,-3.761l-1.439,0l0,7.545l1.439,0l0,-7.545Zm8.989,7.545l-2.732,-7.545l-1.292,0l-2.733,7.545l1.509,0l0.618,-1.863l2.527,0l0.594,1.863l1.509,0Zm-2.492,-3.085l-1.749,0l0.869,-2.733l0.88,2.733Zm9.285,3.085l0,-1.222l-3.087,0l0,-6.323l-1.439,0l0,7.545l4.526,0Zm7.046,0l0,-1.222l-3.305,0l0,-2.013l2.584,0l0,-1.222l-2.584,0l0,-1.866l3.156,0l0,-1.222l-4.595,0l0,7.545l4.744,0Z" style="fill:#5f93a1;fill-rule:nonzero;"/></svg>