<?xml version="1.0" encoding="UTF-8"?>
<!DOCTYPE svg  PUBLIC '-//W3C//DTD SVG 1.1//EN'  'http://www.w3.org/Graphics/SVG/1.1/DTD/svg11.dtd'>
<svg clip-rule="evenodd" stroke-linejoin="round" stroke-miterlimit="2" version="1.1" viewBox="0 0 452 142" xml:space="preserve" xmlns="http://www.w3.org/2000/svg"><path d="m105.79 62.496c-0.504 0-3.492 1.598-3.977 2.008-2.351-2.527-0.742-1.777-2.906-1.211-0.972-1.066-1.945-2.141-2.918-3.188-0.23 0.071-0.445 0.161-0.656 0.25 0.086 0.547 1.965 4.375 1.629 4.672-1.184-0.687-2.352-1.367-3.516-2.05-0.187-4.145 4.047-4.536 5.782-7.34-0.082-0.133-0.145-0.25-0.211-0.36-5.739-0.914-12.45-2.691-17.575 0.317-0.23 1.367-2.351 7.699-3.089 7.699-0.532-0.203-1.059-0.406-1.571-0.586 0.11-0.355 1.145-0.285 1.465-0.301-0.555-2.23-0.68-2.988-2.394-4.258-2.817-3.355-4.489-7.066-6.52-10.753-1.566-2.645-4-5.243-4.746-7.793-0.274-0.094-0.531-0.184-0.785-0.254-0.102-0.411-0.188-0.797-0.274-1.184-0.699-4.191-3.496-6.379-0.699-10.391-0.144-0.91-0.277-1.8-0.398-2.687-1-0.617-0.934-0.57-1.274-1.527 0.914-0.731 1.926 0.386 2.711 1.14 7.688 1.024 2.692-8.726-1.57-3.648-2.434-1.051 0.785-3.278 0.277-6.082-1.816-0.614-3.258-1.278-4.808-0.114-1.5 2.325 1 3.668 0.847 6.153-1.945 0.183-3.324-3.188-5.883-0.981-2.437 8.09 3.196 2.895 6.161 3.418 0.234 1.825-3.368 1.891-0.485 5.606-4.32 1.16-8.832 1.297-13.129 1.957-0.152 0.48-0.3 0.961-0.445 1.461 0.188 0.113 0.379 0.222 0.594 0.34-0.024 0.543-0.215 1.187-0.149 1.941l0.571 0.266c-0.383 0.847-1.121 0.574-0.043 1.734 2.754 0.41 7.429-0.887 10.504-1.207 0 5.195-14.082 15.562-9.36 19.07 0.887-1.047 1.551-2.57 1.809-2.933 0.453-0.653 3.926-6.02 4.5-6.633 0.125 0.043 0.258 0.09 0.402 0.16 0.57 1.84-2.222 8.652-2.945 11.117-0.336 2.141-0.442 4.535-1.582 6.539-0.903-0.644 0.387-1.113-1.168-1.554 0.847-1.997-0.106-1.43 1.734-2.891-0.168-2.848-3.742-4.031-5.566-5.055 0.144-3.261-1.246-3.511-3.324-2.117 0.211 0.156 0.425 0.336 0.652 0.52v0.617c-1.625 1.16-3.383 2.39-4.973 3.418-1.543-1.008 1.313-7.133 1.672-8.524-0.168-5.195 0.024-9.183-4.953-9.843-0.402 0.777 0.383 3.988 0.508 5.265-2.098 2.551-4.383 4.172-2.266 7.242 0.301 2.871 0.91 3.258 3.664 3.989 0 0.16 0.02 0.343 0.039 0.523h-2.515c0 0.25 0 0.527 0.019 0.801 0.465 0.25 1.992-0.067 2.711-0.141 0 0.164 0 0.344 0.02 0.524-0.575 0.3-2.137 0.14-2.836 0.3-0.082 1.481-0.235 2.915-0.528 4.375-0.339 0.567-2.246 3.758-2.605 3.368 1.672-3.368 2.77-6.262-1.23-2.481-2.352 1.047-1.801-1.847-4.04 1.641-1.613-1.254-1.55-1.414-3.156-1.344-0.191-0.23-0.383-0.453-0.554-0.684-0.571-0.023-1.118-0.023-1.672-0.023-0.192 0.363-0.383 0.731-0.551 1.117 0.129 0.34 0.273 0.703 0.426 1.071-0.153 3.71 2.476 3.941 5.25 5.558-0.465 0.5-3.664-1.387-4.762-1.23-0.129 0.25-0.254 0.504-0.363 0.757l0.828 1.157c1.629 0.136 4.383 2.918 6.011 4.148-0.277 2.961-0.531 5.926-0.785 8.887 0.149 0.086 0.297 0.203 0.469 0.316-0.258 1.344-1.019 3.739-1.019 5.082 1.398 1.254 0.066 1.821 0 4.168 1.546 1.664 1.125 3.008 1.078 5.563 0.218 0.183 0.453 0.363 0.679 0.566 0.028 1.434 0.043 2.895 0.086 4.356 0.34 0.293 0.68 0.59 1.039 0.886 0.039 1.801 0.188 3.098 0.59 5.012-1.16 0.617-2.265 0.41-3.492 1.008l0.445 0.543c3.875 0.207 6.629-1.774 10.203-1.774 5.911 3.165 4.891 5.942 11.965 1.93 3.41-0.476 4.321 5.606 9.039 3.078 7.18-5.992 5.36-2.941 11.543 1.485 0.785-0.024 1.567-0.024 2.352-0.024 6.16-4.328 3.957-6.219 10.773-0.664 3.239 0.547 5.489-3.875 7.52-3.875 5.297 1.895 6.351 2.281 12.023-0.66-1.797-2.32-2.203 0.961-3.828 0.961-0.168-0.914 0.043-1.574 0.063-2.328 1.652-1.567 3.304-3.141 4.957-4.692v-0.089c-1.059-0.543-2.117-1.075-3.157-1.594 0.086-1.778-0.105-3.719 1.161-4.809-1.161-6.332-0.696-13.238-0.27-19.57 0.441-0.688 0.887-1.367 1.332-2.031 1.777-2.118 4.043-2.664 5.883-4.758l-0.465-0.641c-1.84 0.391-2.859 0.774-4.402 1.594-0.727-1.816 7.808-1.109 4.402-8.797m-58.719-9.879 0.094 1.164c-0.062 0-0.121 0-0.191 0.028-0.692-0.606-0.563-0.711-0.508-1.293 0.258-0.036 0.258-0.036 0.605 0.101m0.75-0.14c-0.718-0.286-0.812-0.989-0.984-1.418 0.102-0.137 0.203-0.243 0.301-0.348 1.187 0.242 0.683 1.766 0.683 1.766m0.59-3.086c0.328 0.722 0.414 0.914 0.371 2.105-0.722-1.027-0.742-1.121-0.804-2.105h0.433zm0.621-1.438c0.192 0.367 0.41 0.774 0.645 1.184-0.199 0.734-0.199 0.734-0.266 0.699-0.351-0.492-0.652-0.949-0.953-1.395l0.574-0.488zm0.879-1.355c0.367 0.425 0.942 0.82 0.875 1.824-0.148 0.07-0.297 0.164-0.418 0.265-0.305-0.554-0.609-1.117-0.91-1.636 0.152-0.156 0.301-0.321 0.453-0.453m1.621-0.715c0 0.324 0 0.648 0.028 0.972-0.164 0.086-0.329 0.207-0.493 0.321-0.652-1.09-0.519-1.031-0.574-1.938 0.688 0 0.457 0.489 1.039 0.645m0.973-0.172c-0.121 0.133-0.27 0.328-0.422 0.328l-0.633-1.457c0.067-0.125 0.121-0.223 0.211-0.328 0.602 0.105 0.688 0.457 0.844 1.457m0.351-1.441c-0.332-0.59-0.378-0.844-0.398-1.325 0.102-0.113 0.207-0.226 0.336-0.34 0.441 0.321 0.254 1.872 0.062 1.665m35.786 64.847c0.125-0.207 0.277-0.39 0.421-0.57 2.668 0.57 3.708 0.273 6.5-0.434-0.019 0.664-0.039 1.344-0.039 2.028l-3.515 0.203c-3.258-1.133-3.258-1.133-3.367-1.227m-13.043-15.539c-1.145-1.461-5.207-5.789-5.207-7.566 2.179-1.028 4.148 2.144 5.547 3.824 3.3 3.398 7.617 5.453 11.855 7.637 11.516 5.605 11.516 5.605 11.687 5.742-2.644 3.574-3.976 4.469-8.003 5.031-8.489-2.047-10.926-7.496-15.879-14.668m12.535-22.148c1.183 0.64 3.41 0.754 5.144 1.597-0.172 0.387-0.445 1.293-0.742 1.618-2.39-1.141-4.699-2.805-6.242-4.852 0.676-0.941 2.344-0.813 3.449-0.934 0 0.043 0 0.086 0.02 0.157 1.379-0.301 1.695-0.887 2.773 0.019l-0.508 0.758c-1.566 0-4.105-0.504-5.148 0.613 2.164 0.02 3.922 0.184 6.25 0.684-0.484 1.594-4.106 0.086-4.977-0.137-0.019 0.16-0.019 0.32-0.019 0.477m4.383-6.266c0.211 0.504 2.179 6.336 1.203 5.289-0.93-2.285-2.285-3.398-1.203-5.289m-3.942 3.031c-0.043-0.066-0.078-0.113-0.105-0.16 0.847-0.797 1.359-1.094 2.437-1.598 0.149 0.227 0.317 0.458 0.489 0.688-0.403 0.727-2.118 0.957-2.821 1.07m-30.129-28.05c-0.086 0.16-0.172 0.324-0.316 0.39-0.211-0.164-0.422-0.297-0.637-0.433 0.067-0.141 0.129-0.274 0.215-0.391 0.211 0.027 0.402 0.141 0.738 0.434m-0.019-1.887c-0.125 0.066-0.235 0.133-0.34 0.203l-0.57-0.344v-0.18c0.359-0.296 0.25-0.296 0.929 0.09-0.019 0.067-0.019 0.137-0.019 0.231m-3.938 7.355c0.039-0.09 0.102-0.179 0.168-0.25 0.274 0.133 0.547 0.297 0.824 0.457 0 0.227-0.191 0.387-0.398 0.387-0.277-0.207-0.555-0.5-0.594-0.594m1.032 2.34c-0.106 0.024-0.219 0.082-0.297 0.141-0.426-0.457-0.856-0.918-1.282-1.348 0.508-0.547 1.34 0.32 1.579 1.207m-0.864-3.387c0-0.136 0-0.136 0.211-0.617 0.317 0.184 0.977 0.321 0.914 1.028-0.086 0.046-0.172 0.093-0.238 0.16-0.293-0.207-0.594-0.387-0.887-0.571m2.649 4.918c-0.024 0.254-0.043 0.504-0.043 0.754-0.024 0-0.047 0.028-0.067 0.047-0.718-0.41-0.996-0.957-1.332-1.183v1.527c0.532 0.156 1.145-0.07 1.078 1.09-0.062 0.047-0.125 0.093-0.187 0.16l-1.102-0.977c-1.23 4.285-1.949 9.274-1.734 13.899 0.969-0.731 0.969-0.614 2.262-0.391 0.34-2.461 0.574-5.098 1.336-7.223 0.632 2.051 0.086 4.743-0.196 7.067-2.031 0.476-3.172 1.094-4.843 1.75-0.93 2.008-1.485 2.988-1.336 5.855 0.234 0.047 0.464 0.118 0.699 0.184v0.277c-0.934 0.114-1.082 0.91-1.375 1.797h-0.067c-0.062 0 0.11-2.734 0.082-2.984-2.031-4.781 2.485-11.664 3.411-16.176 0.086-1.461 0.765-5.809 1.781-6.422 0.527 0.317 1.082 0.633 1.633 0.949m-7.946 29.352h0.571c0.382-1.938 0.769-3.168 1.59-4.832 0.511 0.027 1.019 0.047 1.55 0.094-0.3 2.504-0.3 6.425-3.285 7.152-2.18-0.391-1.078-8.316-0.699-9.023 0.211 0.136 0.426 0.296 0.66 0.457 0 1.933-0.277 3.988-0.387 6.152m0.196-7.906c-0.086 0.136-0.215 0.297-0.321 0.343-1.039-0.367-1.672-0.847-2.347-1.347 0-0.117 0-0.227 0.019-0.344 0.977 0.066 1.821 0.227 2.649 1.348m-0.785-2.621c-0.188-0.141-0.36-0.274-0.528-0.391 0-0.109 0-0.223 0.02-0.316 0.086 0.046 0.574 0.207 0.738 0.566-0.078 0.047-0.164 0.094-0.23 0.141m-3.708 0.839 0.063 0.391c0.109-0.09 0.215-0.16 0.32-0.227 0.996 1.184 1.039 3.805-1.058 3.805-3.836-0.867-2.5-3.488 0.675-3.969m-3.027-0.246c-1.418-0.367-1.902-1.39 0.172-1.39 0.313 0.59 0.848 1.113-0.172 1.39m3.77-0.343c0.234-0.227 0.492-0.43 0.738-0.641 0.32 0.211 0.445 0.117 0.68 0.797-0.293 0.23-0.653 0.254-0.825 0.301-0.55-0.368-0.55-0.368-0.593-0.457m0.765-2.141c0.25-0.164 0.504-0.316 0.782-0.457 0.168 0.32 0.168 0.32 0.277 0.726-0.086 0.118-0.152 0.254-0.219 0.391h-0.082c-0.23-0.047-0.465-0.094-0.695-0.113l-0.063-0.547zm0.7 4.559c0.207 0.113 0.441 0.226 0.675 0.335 0 0.051-0.445 3.583-0.699 3.305-1.121-2.344-1.082-1.41 0.024-3.64m9.398-2.762c0 0.777-1.719 1.164-2.285 1.297l-0.254-0.2c0.93-0.687 1.309-0.82 2.539-1.097m-0.719-0.453c-0.359 0.09-1.422 0.48-1.613 0.406-0.039-0.086-0.086-0.18-0.125-0.25 0.738-0.387 0.973-0.77 1.93-0.703l-0.192 0.547zm0.231 2.328c-0.446 0.547-1.27 0.953-1.864 0.953l-0.187-0.273c0.613-0.481 1.18-1.321 2.051-0.68m-2.008 1.844c0.164 0.019 0.336 0.089 0.695 0.339-0.043 0-0.086 0-0.105 0.02l-0.633-0.27c0-0.046 0.019-0.07 0.043-0.089m0.949 1.8c-0.105 0.114-0.191 0.18-0.316 0.18-0.235-0.164-0.45-0.297-0.657-0.434v-0.363c0.442-0.32 0.614 0.09 0.973 0.617m-0.613 1.203c-0.086 0.071-0.172 0.141-0.235 0.208-0.168-0.137-0.316-0.274-0.464-0.411 0-0.117 0-0.203 0.023-0.297 0.211 0.161 0.441 0.317 0.676 0.5m-0.871 0.477c1.23 0.531 0.66 1.281 0.593 1.211-0.761-0.523-1.011-0.594-0.593-1.211m0.804 2.668c-0.039 0.09-0.086 0.207-0.125 0.32-0.211-0.047-0.425-0.09-0.613-0.113-0.082-0.184-0.152-0.344-0.211-0.5 0.36-0.25 0.512-0.113 0.949 0.293m-1.035-5.582c-0.043 0-0.082 0-0.129 0.023-0.125-0.089-0.254-0.183-0.359-0.25 0-0.367 0.129-0.367 0.254-0.613-0.293-0.023-0.594-0.047-0.867-0.047-0.723-2.371-0.321-3.281 0.293-5.492 1.445-0.48 2.824-0.98 4.472-0.98 0.043 0.046 0.082 0.113 0.125 0.183-1.414 2.297-4.062 0.363-3.789 4.031-0.187 1.051-0.883 1.282 0.11 1.938 0.019 0.391 0.168 0.684-0.11 1.207m-0.336 0.637 0.063 0.386c-0.11 0.094-0.195 0.184-0.278 0.297-0.125-0.203-0.23-0.406-0.332-0.613l0.547-0.07zm1.102 7.929c0 0.118 0 0.25 0.019 0.387-0.105 0.094-0.105 0.094-0.234 0.094-0.551-0.274-0.723-0.613-0.953-0.938 0.019-0.132 0.043-0.246 0.066-0.363 0.528 0.117 0.528 0.481 1.102 0.82m-0.152 1.571-0.063 0.5c-0.105-0.02-0.215-0.02-0.32-0.02-0.614-0.086-0.485-0.453-0.633-0.73 0.402-0.543 0.402-0.34 1.016 0.25m-0.235 2.324c-0.695-0.43-1.519-0.977-1.519-1.633 0.55 0 1.625 0.656 1.519 1.633m-0.508 1.367c-0.207-0.019-0.422-0.019-0.632-0.019-0.149-0.161-0.293-0.317-0.426-0.477 0.105-0.187 0.304-0.41 0.465-0.523 0.32 0.293 0.535 0.316 0.593 1.019m-16.172-3.844c-0.085 0-0.171 0-0.257 0.02-3.493-0.617-4.868-7.293-3.067-9.82 2.918-2.918 4.614 7.269 3.324 9.8m-3.093-11.578c-0.106-0.23-0.211-0.453-0.317-0.664 0.106-0.152 0.231-0.293 0.36-0.433 0.039 0.117 0.293 1.464-0.043 1.097m-0.703 0.934c-0.141-0.363-0.293-0.707-0.422-1.047 0.281-0.254 0.281-0.254 0.363-0.254 0.277 0.297 0.293 1.551 0.059 1.301m13.234 17.976c-0.246 0.754-0.695 4.012-1.586 4.012-4.234-1.211-8.406-3.922-11.855-6.379 0.824-1.254 1.632-2.301 2.605-3.398 0.949 0 9.313 3.941 10.836 5.765m-15.305-2.093c3.364 1.777 6.797 4.121 10.418 6.125-0.09 0.824-0.336 1.691-0.656 2.578-0.062 0-0.133 0-0.172 0.019-3.937-1.703-7.578-3.281-10.988-5.558 0-1.274 0.824-2.278 1.398-3.164m-2.332 2.461c-1.566-1.442-2.324-2.075-3.152-3.805 0.66-0.981 0.445-1.781 0.914-2.715 1.394 0.914 2.516 1.711 3.871 3.031 0 0.774-1.609 3.489-1.633 3.489m4.684 5.304c2.262-1.207 9.398 2.645 12.492 3.645 1.356 0.551 0.992 0.867 0.336 2.234h-0.121c-2.504-0.887-11.289-2.82-12.707-5.879m7.769 5.586c0 0.571-0.492 2.778-1.312 2.778-3.027-0.797-6.035-2.485-8.516-4.055 0-0.817 0.36-2.008 0.703-2.578 3.133 1.07 5.903 2.215 9.125 3.855m15.289 7.09c-0.086 0-0.152 0.016-0.214 0.039-4.887-0.91-9.93-2.117-14.528-3.531 0.047-1 0.235-1.863 0.512-2.711 2.094 0 5.547 1.5 7.773 2.113 2.879 0.371 8.274-0.836 6.457 4.09m-8.453-6.137c-0.293-0.632-0.101-1.73-0.058-2.183 4.972 0 10.011 1.273 15.246 1.414 0.379 0.043 0.738 0.043 1.222 0.387 0 0.66 0 1.343 0.028 2.027-0.492 0.086-0.977 0.203-1.465 0.32-4.914-0.367-10.457-0.25-14.973-1.965m8.434-5.191c0.019 0.73 0.105 1.566 0.019 2.547-0.066-0.02-0.128-0.02-0.187-0.02-5.149-0.316-9.473-1.363-14.359-2.64 0.125-1.118 0.336-1.782 0.675-2.645 4.618 1.164 9.106 1.844 13.852 2.758m-9.914-2.691c0-1.387 0.613-3.028 1.273-4.145 4.043 0.16 8.508 0.57 12.684 1.164 0.551 0.293 0.105 4.875 0.062 4.828-4.593-0.48-9.91-0.297-14.019-1.847m23.121 3.539c0.105 0.636 0.129 1.406 0.047 2.16-0.996-0.028-1.973-0.028-2.945-0.028-2.688 0-7.219 0.414-9.485-0.382l0.063-2.598c3.242 0 9.422-0.57 12.32 0.848m11.074 5.238c-3.664 1.117-10.394 1.453-14.078 1.453-1.672-0.547-1.164-1.664-1.125-3.164 4.109-0.481 8.406-0.25 12.664-0.117v-0.961c-2.16 0-7.41 1.281-7.41-1.887 0.465-0.316 1.059-0.113 1.734-0.043-0.148 0.25-0.293 0.5-0.422 0.777 0.106 0.153 0.235 0.317 0.36 0.5 0.465 0 0.933 0 1.398 0.02l-0.125-1.254c-0.258-0.043-0.492-0.09-0.722-0.113 5.148-0.817 4.507-0.344 7.726 4.789m-5.609-6.86-1.688-0.363c-0.406-1.222-1.23-2.988-0.597-3.035 0.257-0.019 2.222 2.328 2.48 3.145-0.07 0.07-0.133 0.16-0.195 0.253m-12.856-4.242c3.114 0 6.184-0.363 9.403 0.457 0.027 1.118 0.047 2.254 0.086 3.395-0.551 0.09-1.098 0.207-1.629 0.32-2.774-0.183-5.504-0.113-8.133-0.433 0-1.184-0.125-3.032 0.273-3.739m3.793-19.215v-0.156c0.805-0.418 0.805-0.293 1.907 0.477v0.164l-0.356 0.285c-0.863-0.164-1.168-0.418-1.551-0.77m0.293 1.157c0.524 0.16 1.051 0.343 1.61 0.535-0.036 0.219-0.036 0.476-0.036 0.723-0.14-0.028-0.285-0.028-0.433-0.028-0.785-0.129-1.371-0.66-1.141-1.23m-0.328-2.598c0.695 0 0.926-0.172 1.723 0.434-0.172 0.144-0.297 0.285-0.434 0.418-0.656-0.274-1.09-0.563-1.289-0.852m-0.035-0.914-0.309-0.656c0.641-0.199 1.149 0.183 1.946 0.574v0.41c-0.078 0-0.16 0.031-0.235 0.055-0.48-0.137-0.941-0.274-1.402-0.383m-0.438-1.809c-0.035-0.203-0.035-0.375-0.035-0.546 0.602-0.102 1.012 0.242 1.617 0.785-0.191 0.136-0.347 0.308-0.515 0.476-0.371-0.238-0.723-0.476-1.067-0.715m-0.222-1.312c0-0.207 0-0.406 0.031-0.578 0.598 0.172 1.191 0.344 1.809 0.519-0.325 0.293-0.871 0.348-1.078 0.379-0.278-0.117-0.516-0.234-0.762-0.32m-0.156-1.555c-0.258-0.867 0.972-0.16 1.312-0.023 0 0.09 0.02 0.523-0.152 0.433-0.399-0.132-0.782-0.273-1.16-0.41m-0.18-1.504c0.371-0.144 0.976-0.656 1.586-0.175v0.316l-0.399 0.254c-0.5-0.024-1.007-0.11-1.187-0.395m-0.024-1.777c0.356 0 0.707 0.023 1.071 0.047 0.086 0.172 0.176 0.332 0.265 0.527-0.113 0.098-0.222 0.219-0.336 0.336l-0.734-0.144c-0.086-0.262-0.176-0.524-0.266-0.766m-0.64-0.949v-0.418c0.543 0.125 1.09 0.261 1.66 0.418-0.238 0.261-0.305 0.355-0.543 0.355-0.391-0.125-0.75-0.254-1.117-0.355m-0.555-1.856c0.07-0.109 0.141-0.218 0.203-0.297 0.485 0.371 0.961 0.774 1.446 1.184-0.106 0.105-0.204 0.219-0.278 0.371h-0.168c-0.89-0.371-0.89-0.781-1.203-1.258m1.289-0.301c-0.39-0.285-0.781-0.585-1.144-0.847l1-0.192 0.574 0.52c0 0.359-0.277 0.492-0.43 0.519m-1.531-1.777c0-0.414 0.109-0.351 0.223-0.586 0.496 0.235 0.992 0.473 1.484 0.738-0.305 0.325-0.633 0.235-0.938 0.27-0.269-0.148-0.519-0.301-0.769-0.422m-0.27-1.18c-0.039-0.168-0.078-0.332-0.078-0.464 0.438 0 0.91 0 1.383 0.046 0.086 0.165 0.16 0.336 0.238 0.551-0.078 0-0.152 0-0.238 0.043-0.434-0.09-0.867-0.129-1.305-0.176m-0.425-1.359c0.574-0.199 1.015-0.351 1.703 0.113-0.254 0.278-0.403 0.313-0.617 0.36l-1.086-0.473zm-0.125-1.5c0.449-0.476 1.019 0.031 1.652 0.477-0.098 0.101-0.188 0.207-0.281 0.343-0.289-0.035-0.571-0.035-0.828-0.035-0.2-0.273-0.383-0.547-0.543-0.785m1.043-4.566c0.671 0.933 1.586 4.375 2.519 4.941 0.274 2.988 2.305 5.449 3.156 8.547-0.679 0.383-1.972 1.594-2.418 1.684-0.699-0.75-3.07-13.372-3.257-15.172m6.074 18.179c0 0.778-0.738 1.078-1.317 1.528 0 0.707-0.101 1.527-0.293 2.375-0.062 0-0.105 0.019-0.148 0.043-0.066-0.024-0.129-0.043-0.172-0.071-0.062-1.086-0.828-4-0.191-4.691 0.785 0.133 1.25 0.25 2.121 0.816m-1.863-1.777c-0.024-0.18-0.043-0.363-0.043-0.523 1.527 0.136 2.453 1.003 3.793 2.14-0.086 0.094-0.172 0.188-0.301 0.188-1.164-0.614-2.305-1.207-3.449-1.805m0.367 10.746c-0.051 0.141-0.328 0.348-0.489 0.41-1.05-0.148-0.914-0.41-1.347-1.133 0.781 0.059 0.972 0.024 1.836 0.723m-0.625 1.039c0.191 0.156 0.406 0.32 0.617 0.477-0.086 0.136-0.168 0.273-0.254 0.433h-0.805c-0.148-0.179-0.273-0.363-0.402-0.527 0.273-0.133 0.555-0.273 0.844-0.383m0.937 1.887c0 0.141-0.32 0.758-0.426 0.707-0.66-0.274-0.781-0.566-1.058-0.934 0.617-0.09 0.738-0.16 1.484 0.227m0.274 1.414c-0.024 0.043-0.043 0.09-0.067 0.16h-0.144c-0.317-0.09-0.637-0.18-0.953-0.25 0.382-0.25 0.656-0.367 1.164 0.09m0.086 1.277c-0.047 0.18-0.172 0.66-0.297 0.594-0.364-0.141-0.723-0.25-1.063-0.367-0.019-0.137-0.019-0.274-0.019-0.414 0.273-0.293 1-0.363 1.379 0.187m-1.25 1c0.168 0 0.316-0.066 0.675 0.231v0.113c-0.171 0.117-0.336 0.156-0.464 0.156-0.086-0.023-0.168-0.039-0.235-0.039 0-0.164 0-0.324 0.024-0.461m3.66 1.504c-0.231 0.344-4.215 2.871-4.254 2.848-0.32-0.524-0.641-1.047-0.934-1.547 1.528-0.91 3.391-2.668 5.188-1.301m-5.188 2.235c0.02 0.16 0.047 0.316 0.086 0.48-0.465 0.637-0.465 0.637-0.508 0.613-0.254-0.136-0.511-0.25-0.761-0.363 0.086-0.98 0.23-0.934 1.183-0.73m3.223 0.91c0.594 0.801 0.867 1.301 1.312 2.484-1.418 0.434-2.562 0.527-3.921 0.547-1.208-0.047-2.325-0.203-3.301-0.434l0.062-9.863c-0.191-3.875-2.519-27.207-1.5-28.301 0.235 0.524 1.481-0.047 1.711 0.731-0.058 0.094-0.125 0.179-0.191 0.297-0.699-0.364-0.926-0.297-1.539-0.297 0.379 4.101 1.84 7.722 2.113 12.144 0.125 1.094 0.699 1.504 0.465 3.004 0.105 0.164 0.234 0.321 0.359 0.481-1.078 4.078 4.383 12.234 1.059 16.519-0.551 0.453-1.098 0.91-1.625 1.367 0 0.68 0 1.368 0.015 2.051 2.754 1.024 2.309-0.363 4.981-0.73m-6.508-41.68c-0.074-0.07-0.496 0.113-0.562 0.148-0.204-0.078-0.797-0.355-0.957-0.425 0.16-0.18 0.714-0.489 1.519 0.277m-0.84-1.203c-0.14-0.074-0.656-0.262-0.656-0.406 0.465-0.41 0.336-0.457 0.949 0.09-0.058 0.113-0.207 0.292-0.293 0.316m-7.969 16.937c0.434-0.468 1.27-0.128 1.786 0.434-0.082 0.121-0.145 0.277-0.2 0.434h-0.722c-0.285-0.246-0.574-0.465-0.864-0.68v-0.188zm1.536 2.157c0 0.031 0 0.062 0.031 0.097-0.152 0.098-0.297 0.223-0.418 0.356l-1.262-0.778c-0.027-0.261-0.027-0.261 0.063-0.418 0.511 0.227 1.05 0.485 1.586 0.743m0.121-2.301c-0.91-0.481-1.442-0.953-0.887-1.684 0.207 0.137 1.859 1.004 0.887 1.684m-1.551-3.031c0.508-0.551 1.383 0.214 2.062 0.761-0.031 0.114-0.066 0.219-0.066 0.356-0.137 0-0.273 0.043-0.402 0.078-0.883-0.18-1.188-0.797-1.594-1.195m0.98-1.84c0.407 0.433 2.145 2.601 0.864 1.914-0.278-0.195-2.008-1.914-0.864-1.914m0.774 0.265c-0.527-0.816-0.504-0.878-0.445-1.562 0.414 0.269 0.972 0.781 0.972 1.629-0.179-0.031-0.367-0.067-0.527-0.067m-0.645-2.367c0.121-0.144 0.258-0.289 0.395-0.398 0.398 0.293 0.801 0.574 1.23 0.902 0 0.074-0.191 0.504-0.297 0.531-0.464-0.355-0.902-0.711-1.328-1.035m0.141-1.562c0.09-0.203 0.187-0.375 0.316-0.543 0.407 0.203 0.825 0.406 1.262 0.609 0.031 0.168-0.129 1.027-0.195 0.985-0.477-0.375-0.946-0.711-1.383-1.051m1.891 1.726c0.332 0.668 0.507 1.68 0 2.231-0.024-0.024-0.043-0.047-0.043-0.067-0.039-0.144-0.61-2.164 0.043-2.164m1.332 3.414c0.933 0.141 1.781 0.231 2.859 0.707-0.02 0.164-0.02 0.321-0.02 0.481-0.554 0.043-1.101 0.109-1.632 0.18-0.446-0.047-0.887-0.09-1.332-0.118-0.387-0.726-0.153-0.746 0.125-1.25m3.027 2.735c0.172 7.293 0.785 14.718 0.527 22.129-0.101 0.222-0.211 0.449-0.297 0.679-0.925 0.317-2.089 0.16-2.96 0.207-0.489-0.136-0.954-0.273-1.422-0.386 0.234-7.657 0.488-15.313 0.742-22.969 1.254-0.047 1.949-0.094 3.41 0.34m1.566-14.043c-0.035 0.207-0.07 0.41-0.07 0.617-0.109 0-0.226 0-0.34 0.023-0.433-0.23-0.879-0.457-1.293-0.683 0.114-0.117 0.219-0.227 0.371-0.344 0.805 0 1.141 0.316 1.332 0.387m0.207 1.699c-0.152 0.172-0.781 0.262-1.031 0.262-0.094-0.141-0.601-0.239-0.672-0.344 0.188-0.129 1.059-0.402 1.407-0.402l0.296 0.484zm-1.304 1.297c0.129-0.067 0.254-0.137 0.398-0.184 0.258 0.227 0.531 0.453 0.805 0.703-0.102 0.094-0.207 0.207-0.317 0.325-0.55-0.071-1.039-0.325-0.886-0.844m1.543 1.683c-0.039 0.27-0.586 0.504-0.676 0.504-0.293-0.183-0.59-0.367-0.852-0.504 0.129-0.226 0.262-0.41 0.426-0.593 0.344 0.183 0.727 0.367 1.102 0.593m-6.121 34.747c-0.403-0.364-0.375-0.387-0.336-0.657 0.992-0.297 4.742-1.187 5.015 0.364-1.543 0.043-3.363 0.293-4.679 0.293m-1.551-38.739c0.16 0 0.75 0.559 1.062 0.828 0 0.223 0 0.442 0.028 0.688-0.071-0.027-0.141-0.027-0.184-0.027-0.406 0-0.883-1.411-0.906-1.489m0.07-1.242c0.363-0.387 0.473-0.144 1.133 0.168l0.133 1.051c-0.043 0-0.067 0.023-0.086 0.051-1.11-1.125-1.11-1.125-1.18-1.27m1.633-0.734c-0.09 0-0.184 0-0.277 0.027-0.364-0.344-0.719-0.684-1.063-1.023 0-0.586 1.234 0.093 1.34 0.996m-1.168-4.832h-0.125c-0.039-0.024-0.086-0.047-0.106-0.047 0.067-0.18 0.129-0.363 0.211-0.547 0.297 0.027 0.254 0.25 0.02 0.594m0.215 2.148c0.09-0.07 0.18-0.141 0.297-0.215 0.289 0.289 0.496 0.559 1.062 0.852-0.07 0.125-0.137 0.242-0.183 0.363h-0.157c-0.586-0.433-0.769-0.629-1.019-1m0.23-1.512h0.594c0.277 0.344 0.867 0.684 0.402 1.188-0.761-0.41-0.742-0.637-0.996-1.188m1.926-3.144c0.512-0.184 0.723-0.317 1.445-0.274 0.887 4.082 1.563 14.379 0.524 19.598-0.461 0-0.91 0-1.356 0.02-0.316-0.137-0.632-0.27-0.953-0.387-1.031-5.582 0.024-13.348 0.34-18.957m2.461 3.898c0.23 0.25 0.781 1.051 0.207 1.344-0.187-0.617-0.504-1.023-0.207-1.344m0.516-0.273c0.312 0.16 0.66 0.316 1.007 0.473-0.027 0.152-0.027 0.312-0.027 0.5-0.109 0-0.23 0-0.32 0.027-0.328-0.07-1.071-0.563-0.66-1m1.964 1.859c-0.156 0.137-0.273 0.301-0.402 0.469-0.398-0.266-0.762-0.5-1.133-0.727 0.403-0.199 1.352-0.32 1.535 0.258m1.024 1.446c-0.27 0.21-0.27 0.21-0.649 0.316-1.058-0.281-2.281-0.406-0.925-0.887 0.644 0.246 1.043 0.367 1.574 0.571m0.203 0.957c-0.238 0.203-0.473 0.476-0.684 0.476-0.566-0.133-0.656-0.34-0.847-0.617 0.637-0.18 0.914-0.52 1.531 0.141m0.504 1.351c-0.027 0.063-0.027 0.156-0.027 0.254l-0.891 0.285c-1.313-0.219-1.195-0.512-0.418-1.121 0.391 0.195 0.594 0.418 1.336 0.582m0.582 1.613c0.082 0.11-0.391 0.102-0.555 0.102-0.625-0.086-1.226-0.684-1.441-0.398 0.59-0.793 1.465-0.45 1.996 0.296m0.574 0.954c-0.027 0.207-0.058 0.445-0.058 0.683-0.133 0-0.274 0-0.411 0.031-0.8-0.121-1 0.067-1.382-0.281 0.16-0.332 0.359-0.629 0.547-0.926 0.41 0.325 0.863 0.161 1.304 0.493m0.418 1.632v0.25c-0.328 0.36-0.765 0.254-1.164 0.207l-0.398-0.859c0.464-0.172 1.027 0.078 1.562 0.402m0.606 1.637-1.661-0.031-0.226-0.235c0.844-0.503 0.98-0.562 1.887 0.266m0.531 0.988c-0.223 0.243-0.938 0.243-1.094 0.243l-0.84-0.407c0.028-0.168 0.063-0.3 0.094-0.441 0.59 0.207 1.207 0.406 1.84 0.605m0.281 1.332c-0.062 0.067-0.129 0.168-0.187 0.27h-0.282c-0.257-0.172-0.507-0.344-0.73-0.512 0.25-0.41 0.851-0.547 1.199 0.242m0.668 1.407-0.254 0.207c-0.613-0.071-0.777-0.231-1.031-0.504 0.141-0.184 0.379-0.614 0.613-0.614 0.145 0.157 0.528 0.43 0.672 0.911m0.723 1.089c-0.098 0.106-0.196 0.239-0.258 0.379h-0.219c-0.504-0.203-0.972-0.379-1.445-0.543 0.375-0.406 1.226-0.168 1.922 0.164m0.57 0.961c0 0.082 0 0.168 0.031 0.254-0.152 0.164-0.312 0.391-0.547 0.391-0.636-0.082-0.921-0.109-1.082-0.477 0.504-0.168 0.868-0.511 1.598-0.168m0.207 1.469c-0.258 0.07-0.508 0.141-0.762 0.242-0.414-0.273-0.957-0.507-0.828-0.824 0.922 0 1-0.172 1.59 0.582m0.574 0.852 0.086 0.304h-1.734c0-0.105 0.035-0.207 0.062-0.269 0.528-0.035 1.055-0.035 1.586-0.035m0.739 1.383c-0.047 0.144-0.047 0.144-0.582 0.386-0.325-0.187-0.637-0.386-0.907-0.535 0.176-0.137 0.356-0.281 0.539-0.383 0.313 0.145 0.625 0.348 0.95 0.532m3.753 11.246c-0.312 0.136-0.636 0.269-0.929 0.433-1.973-0.48-2.352-0.64-3.391-2.441 0.254-0.594 0.512-1.184 0.785-1.758 0.125-0.023 0.274-0.023 0.422-0.023-0.043 1.734-0.57 2.097 1.188 2.851 0.043-0.551-0.293-0.801-0.446-0.953 0.11-0.73 0.594-1.254 0.93-1.781-0.867-0.66-1.121-1.141-1.969-1.617-0.89 0.043-2.726 0.777-3.277 0.476-0.023-0.137-0.023-0.273-0.023-0.387 1.351-1.093 2.347-0.953 4.086-1.07-0.868-2.121-2.774-2.527-4.489-3.418-0.019-0.113-0.019-0.113 0.082-0.363 5.168 1.387 6.52 4.305 7.031 10.051m-6.179-3.879c0.144 0 0.254 0.074 0.527 0.23-0.469 0.504-0.719 1.047-1.058 1.664-0.063 0-0.129 0-0.196 0.024h-0.125c0.211-0.75 0.492-1.348 0.852-1.918m1.816-0.387c0.024 0 0.043 0 0.086 0.023 0 0.735-0.379 1.918-1.055 2.372-0.109-0.09-0.214-0.184-0.3-0.274l1.269-2.121zm4.703 5.336c-0.871 0.684-1.547 0.98-2.265 1.363 0.484 0.821 0.972 1.66 1.48 2.512-0.086 0.109-0.168 0.219-0.23 0.363-1.696-0.047-2.438 0.293-3.707 0.477 0 0.613-1.207 1.39-1.739 1.551 0-3.059-0.843-5.747-1.289-8.5 1.629-1.758 4.274 1.617 5.528 2.894 0.785-0.34 1.293-0.5 2.222-0.66m0.996 12.211h-0.191c-2.605-0.524-2.922-1.664-4.359-3.742l-2.266-0.067c-0.027-0.039-0.043-0.07-0.066-0.09 3.515-1.613 1.359 0.415 4.148 0.231-0.379-0.504-0.758-0.981-1.117-1.461-1.102 0.094-2.207 0.184-3.285 0.297-0.106-0.113-0.211-0.203-0.321-0.297 1.614-0.5 2.184-0.777 4.172-0.777l0.699 0.894c0.235-0.023 0.489-0.023 0.739-0.023-1.668-1.598-1.774-1.571-3.703-1.824v-0.227c0.597-0.481 2.351-0.254 3.324-0.254 1.375 2.781 2.672 3.875 2.226 7.34m12.239 10.754c-0.067-0.024-0.106-0.024-0.149-0.024-1.797-0.617-2.668-1.254-3.98-2.32 4.129-2.531 3.707-3.305 4.699 1.02-0.609 0.433-0.57 0.554-0.57 1.324m3.195 1.57h-0.168c-1.144-0.387-1.824-0.82-2.562-1.414 0-1.523 4.808-1.453 2.73 1.414m-8.742-4.578c-2.102-1.23-3.18-2.164-4.723-3.789 1.797-0.813 3.516-0.586 5.504-0.516 0.274 0.453 1.695 2.731 1.461 3.485-0.633 0.183-1.82 0.82-2.242 0.82m-6.27-5.105c-0.254-0.231-0.734-0.356-0.718-0.68 0.074-1.453 3.382-0.352 5.011-0.141-1.734 0.317-4.101 0.821-4.293 0.821m3.176-4.352h0.063c0.129 0.594-0.192 0.867-0.59 1.437l-0.192-0.343c0.231-0.364 0.465-0.727 0.719-1.094m-1.547 1.641c-0.043 0-0.062 0-0.082 0.023-0.57-0.84 0.168-1.457 0.551-2.031 0.125 0.074 0.273 0.14 0.426 0.23 0 0.137-0.746 1.438-0.895 1.778m-1.164 0.546h-0.125c-0.082-0.066-0.172-0.113-0.254-0.16 0-0.797 0.446-1.523 0.68-2.211 0.082 0.075 0.168 0.141 0.273 0.211-0.043 0.797-0.214 1.43-0.574 2.16m-2.18-10.253c2.266-1.118 2.434 0.546 4.258 2.757 0 0.731-1.504 4.489-1.672 4.399-0.785-0.571-0.406-0.961-0.191-1.504-0.828-1.598-2.395-3.965-2.395-5.652m6.95-2.891c0.437 0.293 0.906 0.59 1.371 0.906 0 0-1.399 9.594-2.789 8.844-0.914-0.981 3.551-8.16 1.836-9.25-1.27 1.141-2.137 6.879-3.219 9.117-0.336 0-0.25-0.094-0.316-0.164 0.511-2.414 1.164-8.062 3.117-9.453m1.922 1.09c0.527 2.254 0.343 5.203 0.445 7.519-0.551 0.227-1.078 0.457-1.613 0.711l-0.27-0.234c0.188-2.184 0.082-6.305 1.438-7.996m-1.403-2.164c0-1.825 0.871-2.848 2.633-2.758 0.762 0.984 0.906 1.758 1.059 3.328-0.278 0.141-0.551 0.277-0.801 0.41-1.531-0.16-1.91-0.203-2.891-0.98m2.633 1.871c1.563 0.844 1.285 4.238 0.336 5.851h-0.078c-0.535-1.453-0.43-4.144-0.512-5.578l0.254-0.273zm1.883-1.754c1.629 0 0.293 2.371-0.043 3.164h-0.254c-0.082-0.02-0.168-0.043-0.254-0.043-0.148-1.621-0.062-1.844 0.551-3.121m3.746 2.957c-0.379 3.695-3.512 11.078-7.641 11.691-0.847-0.113-1.675-0.226-2.5-0.316 0-3.672 3.813-2.941 5.867-5.969 0.782-2.324 1.376-4.625 2.395-6.699 0.883 0 1.117 0.48 1.879 1.293m1.867 13.109c-1.844 1.364-4.023 3.254-6.226 3.621-0.379-1.097-0.825-2.328-1.082-3.238 1.757-1.141 7.308-6.172 7.308-0.383m3.363-0.824c0.211 0.91 0.575 1.824 0.383 3.031-1.207 0.817-5.101 4.235-6.015 4.418-0.594-1.09-0.993-2.05-1.418-3.004 0.976-0.617 6.586-4.785 7.05-4.445m-2.836 9.906c-2.371-2.996 0.129-3.461 2.672-5.125 0.188 0 0.375 0.414 0.567 0.754 0.383 3.188-0.867 3.172-3.239 4.371m3.028-0.132-0.063 2.375c-0.086-0.028-0.152-0.028-0.215-0.028-1.246-0.07-2.007-0.269-3.023-0.617-0.168-0.535 2.797-1.836 3.301-1.73m-19.313 11.507c1.336-0.91 2.731-0.547 4.43-0.91 1.523-0.594 2.965-1.734 4.551-0.703-2.434 1.797-4.024 3.797-7.028 3.797-1.253-0.473-1.46-1.18-1.953-2.184m-3.746-1.664c0.024-0.91 0.063-1.824 0.106-2.734 1.968-1.207 4.172-0.977 6.543-1.09 0.148-0.297 0.316-0.598 0.488-0.871 0.168 0 2.859 2.734 3.367 3.238-3.601 1.227-5.805 1.981-9.297 2.121-0.402-0.23-0.804-0.461-1.207-0.664m-30.726 0.754c0.234-0.664 0.492-1.324 0.746-1.961 4.488 0.387 8.699 1.938 13.34 2.442 0.015-1.485 0.148-2.993 0.359-4.332 3.008 0.089 14.141-0.977 15.031 0.933 0.192 0.821 0.403 1.735 0.426 2.735-1.82 1.847-3.051 3.761-5.488 4.191-0.617-0.402-3.563-2.531-2.664-3.301l2.664 0.336c0.297 0.957-0.082 1.875 0.386 2.738 0.633-0.57 0.657-1.82 0.782-2.621 0.886-0.132 1.629-0.203 2.754-0.117-0.047-0.316-0.086-0.637-0.11-0.953-4.719-0.57-9.672-2.008-13.824 0.391-6.797 5.871-4.957-0.641-10.969-1.485-1.14 0.383-2.394 1.004-3.433 1.004m-9.801-2.715c0.277-1.226 0.551-2.027 1.039-3.007 2.687 0.929 5.719 1.8 8.344 3.535 0.039 0.683 0.105 2.187-0.426 2.754-2.52-1.024-6.734-3.282-8.957-3.282m-4.973-1.98c1.121 0 2.817 1.527 3.914 2.277-0.445 0.594-1.883 1.321-2.476 1.531-1.504-1.007-1.332-2.144-1.438-3.808m-0.957-5.059c0.512 0 5.188 2.617 5.91 3.395-0.191 0.5-1.269 2.574-1.336 2.551-1.945-1.5-5.968-3.145-4.574-5.946m-1.058-4.804c0.086-0.094 0.171-0.164 0.25-0.231 1.445 1.344 2.504 2.098 4.39 3.074-0.215 0.778-0.426 1.551-0.636 2.348-0.043 0-0.063 0-0.086 0.023-2.86-1.523-3.809-2.027-3.918-5.214m-0.715-5.02c1.625 1.465 6.687 3.856 7.492 5.586-0.633 0.797-0.676 0.91-1.481 1.027-1.777-0.843-7.832-4.355-6.011-6.613m0.355-25.266c-0.023 1.914-0.023 1.914-0.062 1.891-0.828-0.5-1.715-1.207-1.715-2.137 0.867-0.457 0.551-0.414 1.777 0.246m2.582-1.277c-1.539-0.703 0.555-2.176 1.02-1.934-0.192 0.614-0.508 1.391-1.02 1.934m3.242-0.269c-0.273 2.343-1.293 4.054-2.394 6.265l0.484 0.07c0.192 0.817 2.524 9.36 1.95 10.594-1.266-0.547-1.965-1.301-3.063-1.394 0 2.847 4.656 3.261 5.609 5.316-0.656 0.887-1.527 2.524-2.523 2.867-7.051-3.781-6.375-4.465-5.313-11.8 0.696-0.575 1.036-0.547 2.032-0.708 0.277 0.543 0.554 1.09 0.847 1.665 0.02 0 0.043 0 0.086 0.019 0.633-0.68-0.406-1.98-0.617-2.504-3.113-0.344-4.699-1.937-7.051-3.719-0.019-0.132-0.043-0.246-0.043-0.363l-1.906-0.34c0-0.183 0-0.343 0.024-0.5 1.14 0.317 2.308 0.633 3.472 0.957 0 0.114 0.02 0.227 0.039 0.364 0.407 0.089 2.078 0.773 2.653 0.64-2.504-3.242-8.707-3.855-6.547-8.527 0.804-0.363 0.699 0.961 1.105 1.621 0.356-0.391 0.735-0.773 1.117-1.141 0.215 0.118 0.426 0.254 0.637 0.387 0.02 0.344 0.043 0.684 0.086 1.024-0.129 0.074-0.254 0.14-0.383 0.234v0.453c1.528 0 1.508-1.367 2.121 1.027 0.633 1.184 1.844 1.864 3.11 2.684 0.574-0.203-0.293-3.938-0.403-4.324-0.636-0.321-1.269-0.617-1.882-0.914 0-0.297 0.406-0.571 0.574-0.774 1.332 0.41 2.176 1.957 3.383 3.188 1.207-0.34 1.738-1.457 2.523-2.461 0.082 0.023 0.168 0.047 0.273 0.094m0.211 10.683h-0.148c-0.129-0.07-0.254-0.133-0.359-0.203 0.039-0.57 0.253-0.887 0.531-1.297h0.34c0 0.496 0.019 0.93-0.364 1.5m0.782-4.238c0 0.344-0.739 2.234-1.137 1.801-1.039-1.114-0.641-4.125 0.336-5.172 0.527 0.683 2.348 2.644 0.801 3.371m-1.137-20.481c0.465-0.504 1.605-2.031 2.156-2.214 0.106 0.097 0.215 0.183 0.32 0.296-0.257 0.254-2.011 2.145-2.226 2.145-0.086-0.09-0.172-0.16-0.25-0.227m1.164-3.031c-0.555 1.137-1.02 1.934-2.184 2.481 0-1 1.039-2.754 2.184-2.481m2.473-1.758c-1.079-0.269-1.715-4.304-1.883-5.172 0.082-0.109 0.168-0.222 0.254-0.316 1.015 0.824 1.906 4.238 1.629 5.488m-0.59 9.504c-0.489-0.113-0.957-0.226-1.422-0.32-0.508-1.07-1.121-2.438-1.121-3.399 0.043-0.035 2.226-2.066 2.226-1.183-0.933 0.914-1.359 2.375-0.386 3.785 0.191-0.137 0.386-0.273 0.597-0.387-0.066-1.437 0.207-2.324 0.508-3.531 0-1.641-1.441-2.711-1.949-3.988 0.105-0.086 0.211-0.156 0.316-0.231 0.91 0.325 2.618 2.828 2.817 2.828 0.086-0.113 0.168-0.226 0.273-0.32-0.695-2.48-1.117-4.601-1.398-6.879l0.254-0.344h0.109c1.902 3.692 1.887 10.434-0.824 13.969m6.664 16.723-0.254 1.711c-0.926-0.477-1.84-0.953-2.75-1.414-0.02 0.023 0.34 0.902 0.359 1.027 0.871 1.481 4.766 3.145 6.586 2.434 0.446 0.32 0.809 0.941 1.274 1.597 0.125-0.117 0.273-0.203 0.422-0.297 0.867 1.188 0.086 9.165 1.695 12.625 0.359 0 0.82-0.207 1.246-0.343-0.91-4.219-1.418-3.891 1.59-5.766 0.887 0.801-0.231 4.332-0.508 5.766 0.125 0.047 0.191 0.047 0.25 0.32 0.109 0 0.238 0 0.359 0.023 0.149-0.273 0.321-0.55 0.493-0.8 0.148 0.027 0.148 0.027 0.953 0.48l0.062 1.094c0.977-0.641 1.25-7.152 1.121-8.09-0.402-0.18-0.804-0.359-1.183-0.523 0.019-0.27 0.062-0.524 0.105-0.778 0.403 0 0.656 0.438 1.016 0.985 0.125-0.043 0.273-0.094 0.426-0.118 0.867-2.5 0.398-5.925 0.824-8.402 0.781-0.848 1.101-1.394 1.519-2.375 0.028 0 0.047 0.024 0.086 0.051-0.57 6.465-0.758 13.168-1.058 19.773h1.039l0.32-2.117c1.438 0 2.922 0.02 4.508 0.27l0.066 2.574c-0.109-0.016-0.211-0.016-0.32-0.016-6.965-0.347-15.246-0.777-21.113-4.836 0-3.531 2.265-6.742 1.55-10.683-0.238-0.02-0.464-0.02-0.683-0.02-0.336 1.953-1.008 8.77-1.774 10.156-0.293-0.066-0.574-0.136-0.847-0.203-0.258-2.941 0.148-5.925-0.344-8.57-1.859-3.871-3.742-7.836-5.352-11.57-0.316-2.438-0.296-4.789-0.23-7.067 0.613-0.32 0.652-0.566 1.48-0.386 0.25 0.5 0.547 0.976 0.825 1.757 0.89 6.239 1.207 7.586 6.242 11.731m1.676-16.817c-4.805 3.422-4.805 3.282-3.45 8.958 1.692 1.914 2.075 1.847 1.461 4.714-0.66 0.207-1.254 0.504-1.781 0.618-0.359-0.274-0.699-0.547-1.035-0.821-0.168-1.754-0.891-2.984-1.524-4.398-0.085-0.02-0.152-0.043-0.214-0.043-0.078-1.641-0.211-3.059-0.422-4.445 1.566-1.504 5.867-4.122 5.48-6.379 0.641-0.684 1.821 0.683 1.485 1.796m5.039 10.942c-0.719 0.726-1.84 1.754-2.942 1.457-0.89-0.617-0.89-0.617-0.976-0.617 0.633 1.117 1.843 2.777-0.36 3.144-1.714-0.5-1.039-2.961-1.652-4.078-5.695-8.5 0.531-12.508 6.227-5.992-0.446 0.98-2.497 1.277-2.75 1.711 0.488 0.316 0.972 0.656 1.461 1 0 0.199-1.266 1.836-1.461 2.078 1.25 0.598 0.562-1.086 2.011-0.617-0.843 1.652 0.442 0.949 0.442 1.914m0.617 3.324c-0.211-0.297-0.426-0.594-0.637-0.863 0.578-1.465 1.188 1.055 0.637 0.863m0.25-2.801c0.297 0.067 0.488 0.067 0.785 0.614-0.082 0.113-0.168 0.254-0.25 0.386h-0.277c-0.149-0.156-0.297-0.293-0.422-0.429 0.039-0.207 0.101-0.391 0.164-0.571m0.449-1.597c0.168 0.113 1.121 0.64 0.719 1.277-0.598-0.457-0.996-0.66-0.719-1.277m0.149-1.41c0.441 0.156 0.695 0.339 1.097 1.003-0.066 0.086-0.168 0.204-0.254 0.204-0.426-0.415-0.992-0.821-0.843-1.207m0.73-1.723c0.352 0.137 0.508 0.137 0.684 0.894-0.282 0.411-0.282 0.411-0.332 0.387-0.227-0.195-0.45-0.355-0.68-0.523 0-0.621 0.023-0.43 0.328-0.758m0.18-1.328 1.117 0.804c0 0.028-0.024 0.43-0.098 0.348-0.449-0.184-0.871-0.375-1.293-0.562-0.023-0.11-0.023-0.215-0.023-0.321 0.101-0.105 0.195-0.191 0.297-0.269m0.976-0.137-0.957-1.195c0.848-1.535 1.172 1.425 0.957 1.195m-0.5-2.949c0.227-0.039 0.477-0.074 0.735-0.074 0.121 0.132 1.261 1.121 0.375 1.597-0.981-0.609-0.821-0.851-1.11-1.523m0.567-0.824c0.086-0.211 0.172-0.422 0.285-0.606 0.25 0 1.226 0.731 0.699 1.297-0.336-0.238-0.676-0.48-0.984-0.691m1.293-0.442c-0.375-0.308-0.746-0.586-1.125-0.871 1.468-1.914 1.964 0.598 1.125 0.871m-0.243-3.101c0.172 0.023 0.336 0.046 0.532 0.089 0.105 0.227 0 1.231-0.258 0.957-0.254-0.363-0.442-0.613-0.488-0.777 0.07-0.086 0.132-0.18 0.214-0.269m0.532-1.774c0.285 0.36 0.929 0.942 0.929 1.692-0.101 0-0.179 0.031-0.261 0.054-0.539-0.136-0.875-0.582-1.157-0.863 0.125-0.305 0.254-0.609 0.383-0.883h0.106zm0.336-1.14c0.265 0.125 0.523 0.285 0.789 0.441 0 0.121 0 0.25 0.027 0.371-0.059-0.031-0.117-0.031-0.176-0.031-0.73-0.406-0.73-0.406-0.84-0.563 0.055-0.093 0.11-0.16 0.2-0.218m-0.043-6.586c0.195 0.203 0.382 0.406 0.574 0.636-0.047 0.27-0.067 0.547-0.086 0.844-0.106 0-0.207 0-0.293 0.024-0.617 0-0.426-1.004-0.449-1.278 0.082-0.09 0.168-0.16 0.254-0.226m1.144-0.024c-0.531-0.48-0.594-0.594-0.719-1.07 0.043-0.07 0.102-0.141 0.168-0.203 0.211 0.019 0.426 0.062 0.661 0.105 0 0.231 0.019 1.235-0.11 1.168m0.301 1.504c0.293-0.641 0.336-0.527 0.945 0.043 0 0.117 0 0.117-0.187 0.434h-0.102c-0.234-0.157-0.449-0.317-0.656-0.477m0.59-3.035c-0.196-0.293-0.363-0.59-0.531-0.887 0.507-1.39 0.996 0.637 0.531 0.887m0.762 2.055c-0.211 0.136-0.211 0.136-0.235 0.089-0.504-0.636-0.402-0.546-0.172-1.136 0.129 0 0.469 0.636 0.407 1.047m-0.125-4.332c0.066 0.183 0.187 0.433 0.253 0.824-0.066 0.019-0.113 0.043-0.152 0.086-0.383-0.403-0.211-0.657-0.101-0.91m-2.926-2.711c0.804-1.071 2.84-1.821 3.812-0.254-3.39 0.277-3.39 0.277-3.812 0.254m-7.387 0.504c0.652-0.411 4.57-1.231 5.059-0.43-1.696 0.359-3.282 0.68-4.844 0.816-0.086-0.136-0.152-0.273-0.215-0.386m-0.551-1.825c0.528-0.75 4.192-1.23 5.313-1.343l0.613 0.66c-1.902 0.89-3.875 0.843-5.715 0.957-0.086-0.094-0.144-0.184-0.211-0.274m6.094-2.804c-0.078 0.16-0.168 0.324-0.25 0.507l-1.508 0.067c-0.035 0.066-0.058 0.133-0.082 0.203-0.992-0.344-1.715 0.527-2.644 0.527-1.375-0.074-1.375-0.074-1.59-0.144 0.441-1.133 4.847-1.981 6.074-1.16m0.785 0.754c0.469 0.316 0.934 0.636 1.422 0.98v0.504c-0.488 0.363-0.953 0.726-1.422 1.113l-0.316-0.203c-0.024-0.754-0.254-1.988 0.316-2.394m4.766-0.727c-0.469 0.336-2.055 1.25-2.16 1.203-0.766-0.43-1.524-0.867-2.262-1.273 0.379-0.41 3.574-0.141 4.422-0.141v0.211zm1.461 0.547c0 0.34-0.063 2.16-0.383 1.82-0.488-0.207-0.973-0.387-1.461-0.57-0.02-0.16-0.039-0.32-0.039-0.453 0.508-0.367 1.012-0.731 1.519-1.074 0.106 0.093 0.235 0.183 0.364 0.277m2.562-3.078c-0.441 0.183-0.89 0.367-1.312 0.551-2.313-0.415-2.567-2.993-0.614-3.856 0-0.769 0-1.551 0.02-2.324-1.059 0-2.117 0-3.18 0.023-1.183 2.961-6.414-1.824-1.351-2.89 0.953 0.406 1.019 0.199 1.461 1.363 1.015 0 2.031 0 3.07 0.023-0.02-0.906-0.039-1.82-0.039-2.734-4.492-1.797 4.426-6.563 2.137-0.23l-0.575 0.277c-0.023 0.89-0.023 1.781-0.023 2.687 0.852-0.023 1.723-0.023 2.59-0.023 0.504-1.641 1.765-1.43 3.07-0.867 1.184 3.215-1.867 4.465-2.965 2.394-0.914-0.023-1.804-0.023-2.695-0.023 0 0.793 0 1.621 0.023 2.437 1.313 0.547 0.762 2.098 0.383 3.192m-0.57 3.144c0.082 0.137 0.164 0.297 0.25 0.453-0.168 0.184-0.402 0.434-0.57 0.434-1.715-0.137-1.055-0.98 0.32-0.887m0.148 2.551-1.273 0.34c-0.086-0.133-0.145-0.25-0.211-0.363 0.168-0.09 1.758-0.864 1.484 0.023m-0.511-3.551c-0.274-0.117-0.528-0.207-0.786-0.301-0.238-1.554 1.946-0.32 0.786 0.301m1.906 4.942c0 0.457-0.024 0.57-0.34 1.07-1.414 0-2.812 0-4.211 0.027-0.148-0.593-0.086-0.64 0.086-1.031 1.031-0.09 3.492-0.59 4.465-0.066m0 2.414c-0.192-0.047-0.36-0.067-0.527-0.09 0.066-0.16 0.125-0.297 0.21-0.43 0.215 0.09 0.489 0.613 0.317 0.52m0.723 1.468c-0.715-0.265-1.165-0.601-1.051-1.011 0.301-0.09 0.523 0.035 1.011 0.269-0.277 0.383 0.118 0.742 0.04 0.742m0.765 0.805c-0.066 0-0.101 0.039-0.14 0.078-0.383-0.156-0.727-0.297-1.079-0.414 0.071-0.109 0.137-0.222 0.211-0.297 0.309 0.11 0.657 0.223 1.008 0.375v0.258zm0.774 0.836c-0.028 0.09-0.051 0.184-0.051 0.301-0.332 0.031-0.629 0.062-0.942 0.121l-0.992-0.711c0-0.648 1.836 0.199 1.985 0.289m0.847 1.258-0.097 0.207c-0.582 0-1.168 0-1.719 0.031l-0.231-0.238c0.75-0.383 0.875-0.453 2.047 0m0.453 0.949c-0.238 0.223-0.562 0.477-0.796 0.477-0.211-0.129-0.411-0.254-0.59-0.352 0.121-0.223 0.234-0.441 0.379-0.637 0.211 0 0.566 0.219 1.007 0.512m0.864 1.152c-0.317 0.231-0.508 0.438-0.844 0.438-0.34 0-0.445-0.438-0.469-0.504 0.488-0.25 0.594-0.476 1.274-0.297 0 0.117 0.019 0.231 0.039 0.363m1.058 1.145c-1.144 0.637-1.144 0.637-1.25 0.637-0.484-0.41-0.398-0.41-0.125-0.778 0.446 0 0.891 0.028 1.336 0.047 0 0.024 0.02 0.047 0.039 0.094m0.625 1.246c-0.508 0.195-1.332 0.598-1.59 0.598-0.105-0.203-0.183-0.403-0.253-0.563 0.707-0.242 1.039-0.48 1.843-0.035m0.762 1.094c-0.027 0.152-0.047 0.336-0.047 0.519-0.512 0.024-1.016 0.079-1.492 0.125-0.121-0.156-0.242-0.281-0.363-0.414 0.504-0.539 1.058-0.492 1.902-0.23m0.746 1.762h-1.699l0.082-0.465c0.519-0.035 1.066-0.063 1.617-0.063v0.528zm0.594 0.531c-0.274 0.191-0.274 0.191-1.188 0.523-0.211-0.133-0.425-0.261-0.64-0.363 0.488-0.16 1.004-0.199 1.828-0.16m0.133 1.992c-0.34-0.18-0.68-0.363-0.993-0.547 0-2.723 2.442 1.305 0.993 0.547m1.324 0.293c0 0.129-0.188 1.102-0.395 1.004-0.507-0.192-0.781-0.453-0.961-0.617 0.094-0.157 0.903-0.551 1.356-0.387m1.058 2.176c-0.3-0.031-0.593-0.031-0.871-0.031-0.211-0.172-0.402-0.317-0.589-0.465 0.761-0.461 0.57-0.606 1.402 0.058 0 0.149 0.027 0.297 0.058 0.438m0.688 0.89c-0.363 0.075-0.719 0.18-1.047 0.282-0.355-0.145-0.68-0.25-1-0.352 0.063-0.172 0.156-0.351 0.25-0.488 0.75-0.067 0.883-0.098 1.797 0.558m-0.914 1.641-0.586-0.613c1.777-1.032 2.48-0.207 0.586 0.613m1.887-0.27c0 0.84-1.168 0.633-0.747 0.575-0.136-0.032-0.636 0.136-0.75 0.097l0.817-0.765c0.281 0 0.367 0.062 0.68 0.093m0.859 1.512c-0.41 0.207-0.41 0.207-0.633 0.207-1.055-0.344-1.055-0.344-1.113-0.441 0.281-0.301 2.019-0.758 1.746 0.234m0.711 0.801c-1.387 0.406-1.387 0.406-1.684 0.406-0.093-0.094-0.175-0.191-0.269-0.254 0.504-0.152 1.215-0.632 1.922-0.507 0 0.101 0 0.222 0.031 0.355m0.941 1.687c-0.945-0.14-1.425-0.343-1.871-0.687 2.008-0.512 1.903 0.719 1.871 0.687m-0.761 0.825c-0.075-0.078-0.149-0.157-0.196-0.235 0.735-0.261 0.832-0.398 1.785 0.024-0.394 0.422-1.199 0.211-1.589 0.211m0.937 3.117c1.231 0 2.352-0.797 3.711-0.07-0.211 1.293 0.457 2.519 0.078 3.988-0.551 0-0.926-0.43-1.183-0.637v-0.164c0.425-0.359 0.445-0.383 1.105-0.426-0.09-0.183-0.168-0.367-0.254-0.527-0.832-0.16-1.758-0.32-2.332 0.023 0.973 0.957 2.199 3.215 3.172 4.696 0.32-0.024 0.641-0.024 0.957-0.024l-0.637-0.617 0.891-0.957c0.086 0.023 0.234 0.086 0.465 0.34-0.637 1.555-0.082 1.871-1.563 2.851-0.086 0.821-0.621 6.082-1.379 5.262-1.504-1.914-2.586-4.191-4.445-1.867l-0.234-0.25c0.593-0.48 1.183-0.961 1.8-1.414-0.23-0.207-0.464-0.383-0.679-0.566l0.574-0.411c-0.762-3.281-0.977-5.902-2.969-8.316-0.617-0.461-3.215-2.305-3.363-2.625 0.422 0 1.23 0.367 1.863 0.367-1.269-4.875-4.722-9.594-5.508-13.875 2.586 1.961 4.364 8.723 7.368 10.664-0.02 0.156-0.039 0.317-0.039 0.496 1.207 0.731 1.527 2.532 2.601 4.059m4.07 4.945c-0.128-0.117-0.257-0.23-0.359-0.344 0.102-0.363 0.145-0.32 0.566-0.179 0 0.136 0.02 0.273 0.047 0.406-0.195 0.094-0.109 0.117-0.254 0.117m-2.543-5.742c-0.335 0.066-0.675 0.16-0.996 0.25-0.086-0.113-0.172-0.23-0.25-0.32 0.231-0.157 0.461-0.317 0.719-0.457 0.164 0.16 0.34 0.347 0.527 0.527m3.875-6.883c5.633 0.707 5.571 1.711 5.379 7.68-0.316 2.777-1.968 4.238-4.359 4.648l-1.293-0.207c-0.02-0.41-0.02-0.797-0.02-1.183 0.333-0.16 0.672-0.317 1.012-0.457 0-1.024-0.89-0.762-0.89-1.09 0.89-0.957 2.203 0.82 1.91-1.094h-2.055c0-1.105 0.57-0.828 0.441-1.641-1.058-0.07-2.097-0.117-3.132-0.16 0-2.894 1.484-4.258 3.007-6.496m10.438 2.141c-0.906 1.32-1.906 7.633-4.402 7.633h-0.063c0-7.2 1.375-9.543-5.695-10.504-0.192-0.293-0.321-0.59-0.321-0.723 2.84-1.828 11.586-0.711 14.715 0.363-1.476 1.047-2.879 2.094-4.234 3.231m5.148 4.695c-0.043 0-0.086 0-0.129 0.024-0.464-0.614-0.742-1.141-0.949-1.622 0.02-0.019 0.039-0.019 0.059-0.019 0.172 0.203 1.226 1.027 1.019 1.617m2.52 3.621v-0.566c-0.254-0.141-0.488-0.278-0.723-0.391v-0.273c0.301-0.09 0.551 0.051 0.977 0.297-0.192 1.664-0.809 1.8-2.059 2.347-0.082-0.043-0.164-0.086-0.254-0.113 1.371-3.211 0.418-0.418 2.059-1.301m5.312-3.734c0.34 4.445-5.339 5.469-7.117 8.933 0.809 0 5.067-2.093 5.301-1.843-2.059 1.664-4.77 4.277-7.309 4.621-0.316-0.344-0.636-0.66-0.953-0.977-0.679 0.477-2.285 5.805-2.285 6.805l0.695-0.063c0.446-1.57 0.911-3.121 1.379-4.671 0.528 0.07 1.078 0.136 1.629 0.23 0.403 2.91-0.086 6.813-0.273 10.023-0.403 0.34-2.328 1.961-2.692 1.778-0.449-0.797-0.89-1.594-1.312-2.395 0.957-0.863 1.992-1.863 2.902-2.843-1.254-1.348-5.804 4.191-7.074 2.82 1.652-3.828 4.621-12.735 7.266-16.289-0.407-2.231-3.453-4.692-2.817-5.922 1.098 0.59 3.258 2.66 4.422 2.594 0.598-1.25 1-2.301 2.184-2.938 0.211 0.117 0.422 0.227 0.656 0.363l0.129 1.141c-1.949 1.004-2.543 2.281-3.094 4.645 2.438 1.574 4.129-4.075 4.445-4.075 0.34 0.297 0.403 0.411 1.036 0.25 0.281-1.093-0.442-1.324 0.281-2.097l0.676 0.136c0 0.317 0 0.661 0.015 1.004 0.66-0.457 0.938-0.707 1.379-1.457 0.172 0.067 0.34 0.137 0.531 0.227m-10.222 3.715c0.187 0 0.379 0 0.566 0.019-0.105-1.047-1.945-2.531-2.578-2.531 0.633 0.777 1.352 1.531 2.012 2.512m0.418 18.617c-0.125-0.207-0.231-0.414-0.336-0.617-0.934 0.133-0.996 0.133-1.356 1.066 0.102 0.164 0.235 0.344 0.36 0.527 0.379 0 1.078-0.546 1.332-0.976m-13.887-27.461v0.617c1.691-0.023 3.387-0.047 5.082-0.047-1.996-1.41-3.07-1-5.082-0.57m-0.105 1.711c-0.024 0.207-0.047 0.41-0.047 0.613 0.918-0.066 1.144-0.668 1.699 0.344-0.211 0.184-0.43 0.363-0.641 0.57 0.086 0.16 0.172 0.34 0.258 0.524 0.719 0 1.438 0.023 2.18 0.047v-0.5l-0.512-0.071c-0.359-0.597-0.121-0.777 0.02-1.211 0.257-0.019 0.535-0.047 0.808-0.047v-0.496c-1.93-0.457-2.094-0.343-3.765 0.227m1.48 2.367c-0.148 0.207-0.258 0.324-0.258 0.707 0.809-0.023 1.613-0.043 2.438-0.043-0.742-0.226-1.461-0.457-2.18-0.664m-3.688 2.055c-0.164 0.273-0.332 0.547-0.484 0.84l-1.418-0.067-0.129 0.278 0.446 0.402c0.761-0.043 1.527-0.067 2.312-0.086l-0.578-1.367h-0.149zm-18.906-38.188c-1.394-2.781-3.836 0.27-1.23 1.207 0.808-0.273 0.867-0.34 1.23-1.207m0-9.48c-0.761-1.414-1.758-1.457-2.433 0 0.336 0.734 0.234 0.707 1.203 1.07 0.683-0.183 0.914-0.363 1.23-1.07m2.711 4.808c0.317 0.707 0.254 0.868 1.207 1.204 2.75-0.723-0.086-4.145-1.207-1.204m-8.305 0.137c0-2.848-4.277-0.183-1.121 1.067 0.641-0.063 0.868-0.567 1.121-1.067m-9.964 36.34c-0.364-0.18-0.536-0.066-0.703-0.066-0.149-0.411-0.297-0.801-0.422-1.184-1.106-0.391-2.161 0.957-2.161 2.07 0.188-0.183 0.379-0.363 0.575-0.523 0.168 0.137 0.336 0.297 0.504 0.457 0 0.207-0.317 0.523-0.485 0.754 0.188 0.086 0.399 0.179 0.614 0.293 0.886-0.5 1.375-0.957 2.078-1.801m-4.875-0.133c0.871 0 2.5-1.621 3.535-2.168-0.125-0.226-0.254-0.43-0.36-0.64-1.5-0.18-2.644 1.574-3.175 2.808m0.125 5.512c-2.157-3.235-2.391-3.531-2.473-7.063-2.711 2.118 1.035 6.946 1.859 9.84 0 0.024 0 0.047 0.024 0.074 0.637-0.277 0.59-2.394 0.59-2.851m2.398 11.098c-1 1.433-1 6.125-1 7.906 0.024 0 0.047 0 0.086 0.019 0 1.414-0.805 1.891 0.828 2.692 0.043 0 0.106 0 0.172 0.023 0.336-3.371 0.801-6.992 0.504-10.234-0.211-0.137-0.402-0.27-0.59-0.406m1.332-0.047c0.043 3.644-0.105 7.566 0.317 11.367 0.25-0.02 0.531-0.039 0.804-0.039-0.234-3.789-0.465-7.567-0.679-11.328h-0.442zm0.848-0.18c0 3.918 0.738 7.969 1.289 12.004 0.191 0.09 0.402 0.207 0.613 0.32 0.047 0 0.082 0 0.129 0.02-0.316-4.211-0.613-8.492-1.609-12.434-0.149 0.02-0.297 0.039-0.422 0.09m-15.903-7.223c0.868-0.961 1.715-1.758 1.461-3.008-0.828 0.43-1.207 2-1.48 2.934 0 0.027 0 0.051 0.019 0.074m-3.367-3.191c-0.875-0.234-0.117-0.75-1.101 0.043 0.148 0.183 0.32 0.363 0.488 0.547 0.125 0 0.484-0.457 0.613-0.59m9.211 39.918c0 0.637 0.145 0.91 0.551 1.617 0.191-0.137 0.402-0.25 0.613-0.367-0.066-1.453-0.234-1.613-1.164-1.25m23.949 1.527c-0.234 0.27-0.468 0.571-0.703 0.867 0.254 0.223 0.512 0.477 0.785 0.727 0.125 0 0.125 0 1.059-0.43 0.086-0.324-0.125-0.797-0.125-0.824l-1.016-0.34zm16.325 0.637c0 0.5 0.445 0.777 1.039 0.934 0.273-0.043 0.547-0.067 0.824-0.086 0.062-0.321 0.043-0.645 0.043-0.735-0.742-0.363-1.356-0.48-1.906-0.113m19.921-9.414c0.196-0.746 0.028-0.731-0.312-1.16-0.828 0.047-0.957 0.683-1.23 0.683 0.234 0.254 0.464 0.528 0.699 0.797 0.273-0.109 0.551-0.222 0.843-0.32m-2.476-2.731c0.465-1 0.359-0.796-0.106-1.476h-0.972c-0.172 0.265-0.32 0.562-0.465 0.863 0.187 0.227 0.379 0.481 0.59 0.731 0.32-0.051 0.637-0.094 0.953-0.118m-4-2.843c0.105-0.325 0.215-0.618 0.316-0.914-0.804-1.231-0.699-0.551-1.882 0.179 0.191 0.223 0.378 0.481 0.57 0.735h0.996zm-4.492-20.055c-0.805 1.297-0.883 1.148 0.234 2.379 0.379-0.047 0.785 0.035 1.184 0.015 0.468-0.753 0.679-1.164 0.613-2.05-0.945-0.481-1.117-0.434-2.031-0.344m1.929 0.523c-0.085 0.707-0.168 1.004-0.593 1.618l-1.203-0.082c-1.086-1.934 0.144-2.262 1.796-1.536m-0.316 0.161-1.273-0.34-0.442 0.75c0.379 0.273 0.781 0.547 1.188 0.843h0.125c0.359-0.57 0.402-0.707 0.402-1.253m-1.187-0.137c0.359 0.066 0.722 0.164 1.078 0.25 0 0.297-0.102 0.547-0.336 0.914h-0.106l-0.953-0.684 0.317-0.48zm-21.321 21.258c-0.129 0.297-0.258 0.617-0.363 0.933 0.32 0.227 0.656 0.481 0.996 0.731 0.273 0 0.828-0.317 1.207-0.453 0-0.368-0.613-1.098-0.633-1.145l-1.207-0.066zm4.086 8.886c-0.32 0.094-0.637 0.207-0.933 0.321-0.067 0.269-0.106 0.547-0.153 0.84 0.219 0.207 0.426 0.433 0.66 0.664 1.446-0.184 0.891-1.118 0.426-1.825m-7.41-3.918c-0.551-0.023-1.082-0.046-1.609-0.046-0.067 0.3-0.067 0.5-0.067 0.96l0.762 0.204c0.805 0 1.082-0.414 0.914-1.118m-11.902-6.312c0 0.773 0.066 0.863 0.722 1.508 0.274 0 0.825-0.575 1.098-0.801 0-1.801-1.207-0.914-1.82-0.707m-3.895 3.574h-1.211c0.047 0.981 0.047 0.981 0.106 1.211 0.215 0.086 0.215 0.086 0.785 0.16 0.976 0 0.488-0.937 0.32-1.371m4.953 5.496-0.125 0.477c0.106 0.16 0.235 0.32 0.36 0.496 0.359 0 0.714 0.027 1.078 0.051-0.039-0.703-0.063-0.754-0.317-1.164l-0.996 0.14zm-6.011 3.508c0.273-0.027 0.273-0.027 1.375-0.363l-1.059-1.211c-0.336 0-0.469 0.207-0.723 0.32v0.961c0.133 0.086 0.254 0.184 0.407 0.293m-9.571-5.352c-0.574-0.253-0.594-0.113-1.019 0.02-0.043 0.637 0.191 0.91 0.597 1.617 0.973-0.34 0.633-0.683 0.422-1.637m0.973-3.078c0 0.524 0.191 0.754 0.551 1.34 0.191-0.109 0.402-0.222 0.613-0.32 0-1.137-0.305-1.395-1.164-1.02m-3.598-6.316c0.063 0.781 0.149 0.894 0.758 1.691 0.191-0.113 0.406-0.226 0.613-0.324 0-1.48-0.207-1.816-1.371-1.367m4.848-2.277c0.781-1 0.762-0.84 0.254-1.664-0.278-0.02-0.531-0.02-0.785-0.02-0.422 0.98-0.489 0.73 0.105 1.684h0.426zm8.422-17.2c0.367 0.168 0.527 0.657 0.238 1.528-0.168 0.07-0.32 0.136-0.469 0.222-0.996-0.105-1.183-0.683-1.058-1.48 0.304-0.203 0.613-0.317 0.879-0.336-0.262-0.012-0.575 0.019-0.938 0.133-0.297 0.98-0.023 1.683 1.031 1.847 1.164-0.308 1.297-1.593 0.317-1.914m-0.41-0.066c0.152 8e-3 0.289 0.027 0.41 0.066-0.121-0.054-0.258-0.078-0.41-0.066m46.656 36.656c2.226-0.41 4.722-1.89 6.566-3.484-3.773-1.231-7.031-2.824-10.461-4.418-2.179-1.758-6.496-4.832-9.125-4.832 1.524 4.918 8.645 11.484 13.02 12.734m-10.778-10.64c-0.484-0.594-1.222-1.184-1.371-1.504 2.051 0 5.914 3.109 7.364 4.027 1.027 0.648 1.254 0.801 2.523 1.418 2.754 0.75 5.149 3.047 8.25 3.258-1.34-0.09-4.543 2.363-5.832 2.363-1.465-0.16-5-1.723-5.258-2.68-2.047-2.757-5.019-3.281-5.676-6.882m-44.8 13.671c-3.2 0.411-6.332 1.274-9.082 2.805 0 0.18 0.234 0.406 0.422 0.684 1.777-0.367 6.328-2.164 7.98-1.824 1.527 1.73 2.664 2.757 4.66 4.191 4.043 1.437 5.633-2.824 8.469-2.824 6.121 6.586 5.695 3.648 13.023 0.57 0.082-0.023 5.313 3.848 7.875 4.078 2.86-0.203 4.598-2.781 7.411-2.781 5.695 2.418 6.542 2.074 11.773-1.297 3.07-0.887 6.629 1.664 10.59 0.32-0.047-0.117-0.086-0.207-0.129-0.297-3.731-0.433-7.539-1.847-11.098-1.73-3.64 3.121-5.992 4.941-10.183 2 0.019-0.039 0.043-0.066 0.066-0.09-0.023-0.019-0.047-0.043-0.047-0.066-0.082 0-0.168 0-0.23 0.023-1.59-1.707-1.844-1.023-3.532-0.117-4.242 4.035-7.265 3.355-10.8-0.906-4.215-3.149-6.606 6.375-12.535 0.953-2.567-2.871-2.141-2.711-5.532-0.453-4.761 2.644-5.945 0.363-9.101-3.239m-5.508 6.29c5.805-0.907 3.555-2.141 8.746 1.734 3.473 1.73 4.867-0.227 8.574-0.914 2.692 2.301 5.93 2.961 9.528 2.754 5.062-3.074 3.347-2.731 7.878 0.734 0.446 0.227 1.122 0.207 1.692 0.613 3.41 0 4.89-0.25 7.836-2.324 3.113-1.504 6.418 1.918 10.906 0.07 3.641-1.687 5.27-1.257 9.277-1.343-0.027-0.321-0.046-0.641-0.046-0.934-6.204-1.094-5.524-2.168-10.29 1.184-4.257 1.867-6.921-2.145-10.46-0.528-6.989 5.129-6.989 0.161-13.336-1.113-4.344 2.098-5.336 2.988-9.957 0.996-0.887-0.613-2.414-1.953-3.133-2.094-5.149 2.075-6.031 3.739-10.524 0.184-1.945-1.387-6.265-2.211-6.691 0.981m11.984 4.148c0.129 0.25 0.254 0.504 0.403 0.773 1.144 0 1.824-0.07 3.07-0.5 0.047 0.043 0.086 0.094 0.129 0.161 3.219 0 3.707 0.796 6.816 1.707 2.52 0.523 5.403-1.051 8.004-1.301 3.113 1.187 3.942 1.847 7.774 2.281 2.41-0.07 3.894-0.32 6.179-1.594 2.567-1.187 3.348 0.707 6.676 0.137 0.102-0.23 0.207-0.434 0.336-0.641-2.227-0.773-6.734-2.984-8.176-0.32-2.668 1.324-5.824 1.395-8.554 0.824-1.633-0.754-2.665-2.101-4.258-2.101-2.453 0.644-6.754 2.691-8.93 0.801-4.977-2.438-4.258-2.028-9.469-0.227m14.231 3.512c-0.067 0.199-0.168 0.636-0.36 0.836 0.825 1.347 3.301-0.223 4.168-0.704 1.356 0 2.774 0.774 4.305 1.348 0.145-0.07 0.313-0.461 0.418-0.664-3.344-2.641-4.699-1.598-8.531-0.816" fill="#003e4b"/><path d="m40.984 129.69c0.774 0.247 1.567 0.602 2.137 0.989l-0.781 2.437-0.965-0.308c-0.07-0.442-0.098-0.957-0.074-1.336-0.235-0.223-0.633-0.489-1.16-0.657-0.661-0.21-1.297-0.128-1.528 0.586-0.547 1.711 3.739 2.375 2.852 5.153-0.461 1.433-2.09 2.14-4.344 1.418-0.656-0.211-1.433-0.563-1.976-0.871l0.75-2.348 0.949 0.305c0.078 0.461 0.113 1.011 0.078 1.371 0.164 0.152 0.562 0.363 0.914 0.476 0.73 0.235 1.273 0.055 1.473-0.57 0.496-1.559-3.797-2.395-2.93-5.109 0.476-1.496 2.234-2.293 4.605-1.536" fill="#003e4b"/><path d="m33.965 127.18-0.391 0.699c-0.426 0.039-0.886 0.019-1.312-0.074l-2.938 5.254c0.281 0.289 0.559 0.699 0.758 1.07l-0.383 0.683-3.875-2.167 0.383-0.684c0.418-0.024 0.918 0 1.305 0.086l2.941-5.254c-0.301-0.313-0.562-0.699-0.754-1.082l0.391-0.695 3.875 2.164z" fill="#003e4b"/><path d="m19.082 119.96 1.805-1.86c1.105 0.336 2.258 0.981 3.25 1.942 1.984 1.926 2.027 4.375 0.234 6.226-2.008 2.071-4.723 2.047-7.027-0.187-0.676-0.652-1.348-1.457-1.821-2.207l1.797-1.852 0.739 0.715c-0.102 0.438-0.282 0.867-0.485 1.227 0.219 0.437 0.563 0.926 1.059 1.406 1.246 1.207 2.746 0.809 3.961-0.445 1.168-1.207 1.422-2.836 0.097-4.118-0.289-0.277-0.597-0.535-0.906-0.699l-1.238 1.274c0.156 0.285 0.265 0.679 0.351 1.031l-0.535 0.551-2.691-2.606 0.535-0.554c0.277 0.023 0.586 0.058 0.875 0.156" fill="#003e4b"/><path d="m18.973 114.26-0.684 0.418c-0.387-0.176-0.781-0.422-1.109-0.707l-5.133 3.144c0.105 0.387 0.148 0.883 0.141 1.301l-0.672 0.41-2.317-3.785 0.668-0.406c0.375 0.183 0.801 0.445 1.098 0.715l5.133-3.149c-0.106-0.418-0.145-0.883-0.125-1.308l0.683-0.418 2.317 3.785z" fill="#003e4b"/><path d="m14.93 107.07-0.75 0.285c-0.328-0.238-0.684-0.547-0.957-0.902l-5.629 2.137c0.031 0.398-0.016 0.91-0.106 1.304l-0.734 0.278-1.574-4.153 0.734-0.277c0.328 0.238 0.707 0.602 0.945 0.906l5.746-2.179-0.742-1.821c-0.367 0.024-0.929 0.024-1.422-4e-3l-0.359-0.949 2.457-0.929 2.391 6.304z" fill="#003e4b"/><path d="m11.57 97.172-0.785 0.164c-0.289-0.285-0.594-0.649-0.805-1.043l-5.894 1.23c-0.031 0.399-0.156 0.899-0.309 1.274l-0.765 0.16-0.907-4.348 0.766-0.16c0.289 0.285 0.606 0.707 0.789 1.043l6.02-1.254-0.446-1.918c-0.367-0.031-0.925-0.121-1.406-0.222l-0.207-0.993 2.57-0.539 1.379 6.606z" fill="#003e4b"/><path d="m1.598 79.527 3.91-0.32c2.394-0.191 3.754 1.215 3.949 3.48 0.234 2.758-1.086 3.825-3.016 3.993l-4.199 0.363c-0.086 0.285-0.312 0.66-0.484 0.891l-0.781 0.066-0.336-3.902 0.781-0.067c0.234 0.285 0.504 0.617 0.644 0.961l3.864-0.332c1.449-0.125 2.269-0.707 2.136-2.254-0.109-1.254-0.914-1.816-2.218-1.687l-4.114 0.402c-0.066 0.359-0.304 0.75-0.472 1.055l-0.782 0.07-0.296-3.461 0.781-0.066c0.211 0.215 0.512 0.527 0.633 0.808" fill="#003e4b"/><path d="m8.895 65.699-0.801-0.015c-0.239-0.262-0.489-0.622-0.543-0.93l-5.028 0.723v0.015l6.329 2.36-0.028 1.425-6.496 2.235v0.015l5.051 0.614c0.152-0.352 0.383-0.653 0.609-0.911l0.801 0.016-0.059 3.254-0.8-0.012c-0.188-0.222-0.391-0.468-0.547-0.734l-6.02-1.109c-0.148 0.367-0.363 0.714-0.578 1.035l-0.785-0.016 0.062-3.441 5.79-2.075v-0.031l-5.707-2.191 0.062-3.442 0.801 0.016c0.183 0.324 0.402 0.668 0.523 1.07l6.059-1.043c0.133-0.242 0.348-0.5 0.574-0.695l0.801 0.012-0.07 3.855z" fill="#003e4b"/><path d="m5.902 55.465c-0.078 0.656-0.679 1.109-1.363 1.027s-1.164-0.664-1.082-1.32c0.078-0.656 0.68-1.125 1.363-1.043 0.688 0.082 1.16 0.68 1.082 1.336" fill="#003e4b"/><path d="m5.125 40.422 3.813 0.93c2.332 0.578 3.175 2.343 2.644 4.554-0.644 2.692-2.238 3.289-4.121 2.836l-4.094-0.984c-0.172 0.242-0.504 0.527-0.742 0.691l-0.762-0.183 0.914-3.809 0.762 0.18c0.129 0.351 0.281 0.75 0.309 1.117l3.765 0.906c1.418 0.34 2.379 0.051 2.739-1.461 0.293-1.222-0.29-2.012-1.571-2.304l-4.027-0.918c-0.176 0.32-0.527 0.617-0.781 0.855l-0.762-0.184 0.809-3.378 0.761 0.183c0.133 0.27 0.321 0.664 0.344 0.969" fill="#003e4b"/><path d="m11.363 25.836 6.637 3.375-0.828 1.633-7.82 1 4.64 2.07c0.266-0.242 0.606-0.449 0.996-0.684l0.711 0.364-1.691 3.328-0.715-0.363c-0.039-0.454-0.066-0.895-0.012-1.25l-5.316-2.789c-0.297 0.296-0.676 0.55-1.051 0.792l-0.699-0.355 1.574-3.094 6.981-0.898-4.059-1.84c-0.254 0.25-0.602 0.434-0.953 0.598l-0.699-0.352 1.484-2.918 0.699 0.356c0.067 0.363 0.133 0.687 0.121 1.027" fill="#003e4b"/><path d="m21.195 24.777-0.593-0.539c0.062-0.422 0.187-0.871 0.371-1.261l-4.45-4.059c-0.339 0.211-0.808 0.391-1.211 0.5l-0.578-0.531 2.989-3.282 0.582 0.532c-0.075 0.41-0.207 0.89-0.383 1.25l4.449 4.054c0.375-0.218 0.809-0.386 1.223-0.484l0.594 0.539-2.993 3.281z" fill="#003e4b"/><path d="m30.691 7.746 1.414 7.895-1.613 0.984-6.394-4.879c-0.254 0.024-0.555-0.055-0.852-0.101l-0.41-0.668 3.293-2.008 0.41 0.672c-0.141 0.328-0.301 0.629-0.519 0.953l4.496 3.504 0.027-0.016-1.309-5.449c-0.32 0.066-0.757 0.031-1.082 0.023l-0.41-0.672 2.809-1.711 0.406 0.672c-0.066 0.246-0.125 0.563-0.266 0.801" fill="#003e4b"/><path d="m39.281 12.16-0.219-0.773c0.266-0.293 0.598-0.637 0.977-0.875l-1.641-5.778c-0.406-0.019-0.918-0.136-1.296-0.23l-0.215-0.754 6.383-1.816 0.605 2.125-0.961 0.273c-0.238-0.215-0.586-0.598-0.746-0.887l-1.832 0.52 0.695 2.449 1.508-0.426c0.02-0.273 0.141-0.574 0.227-0.781l0.796-0.227 0.684 2.403-0.797 0.226c-0.172-0.152-0.472-0.367-0.613-0.574l-1.508 0.426 0.762 2.668 1.832-0.524c-0.016-0.378 0.074-0.855 0.164-1.21l0.976-0.278 0.629 2.215-6.41 1.828z" fill="#003e4b"/><path d="m58.809 8.695-0.114-0.937c-1.164 0.262-1.308-2.942-2.812-3.035 1.137-0.418 1.769-1.266 1.676-2.332-0.149-1.692-1.403-2.289-3.621-2.094-1.227 0.105-2.672 0.297-3.024 0.328l-1.09 0.098 0.071 0.781c0.371 0.176 0.804 0.363 1.226 0.453l0.527 6c-0.433 0.168-0.843 0.43-1.128 0.68l0.07 0.797 4.133-0.364-0.071-0.797c-0.277-0.168-0.636-0.394-0.984-0.492l-0.195-2.234 0.488-0.043c1.5-0.133 1.477 3.633 3.465 3.457 0.476-0.039 1.008-0.121 1.383-0.266m-4.739-4.406-0.703 0.063-0.234-2.684c0.148-0.043 0.422-0.086 0.547-0.094 1.148-0.101 1.742 0.344 1.82 1.254 0.066 0.734-0.328 1.363-1.43 1.461" fill="#003e4b"/><path d="m66.07 9.008c-0.816-0.039-1.668-0.172-2.32-0.395l0.121-2.562 1.012 0.047c0.179 0.41 0.344 0.898 0.418 1.273 0.281 0.156 0.738 0.305 1.289 0.332 0.691 0.031 1.285-0.215 1.32-0.965 0.086-1.793-4.226-1.32-4.09-4.23 0.071-1.504 1.457-2.61 3.821-2.5 0.691 0.031 1.531 0.168 2.14 0.324l-0.117 2.461-0.996-0.043c-0.195-0.426-0.371-0.949-0.434-1.305-0.195-0.105-0.632-0.207-1.004-0.222-0.765-0.036-1.242 0.277-1.273 0.933-0.074 1.633 4.289 1.324 4.156 4.172-0.07 1.567-1.558 2.797-4.043 2.68" fill="#003e4b"/><path d="m74.684 9.582 0.14-0.789c0.391-0.172 0.836-0.305 1.27-0.356l1.074-5.925c-0.356-0.18-0.754-0.481-1.063-0.762l0.141-0.773 4.367 0.793-0.14 0.773c-0.387 0.156-0.868 0.297-1.262 0.34l-1.078 5.926c0.387 0.199 0.754 0.48 1.062 0.777l-0.144 0.789-4.367-0.793z" fill="#003e4b"/><path d="m92.477 8.395c-0.028-0.477-0.055-1.11 3e-3 -1.551l-1.371-0.547-2.277 5.73c0.336 0.239 0.648 0.621 0.902 0.981l-0.296 0.742-4.141-1.645 0.297-0.746c0.445-0.082 0.918-0.152 1.324-0.093l2.281-5.727-1.371-0.547c-0.242 0.352-0.726 0.832-1.062 1.129l-0.883-0.351 0.976-2.458 7.493 2.981-0.977 2.457-0.898-0.355z" fill="#003e4b"/><path d="m104.06 12.602-1.753-1.372-6.793 4.18c-0.274-0.051-0.621-0.082-0.922-0.07l-0.492 0.629 2.55 1.996 0.496-0.629c-0.089-0.313-0.199-0.645-0.386-0.953l0.914-0.547 2.48 1.941-0.308 1.016c-0.332-0.098-0.707-0.145-1.032-0.152l-0.492 0.632 3.039 2.372 0.492-0.629c-0.035-0.254-0.132-0.555-0.242-0.84l2.449-7.574zm-2.257 0.468c-0.141 0.36-0.293 0.727-0.418 1.137l-0.805 2.477-1.961-1.532 2.27-1.433c0.343-0.219 0.644-0.453 0.902-0.657l0.012 8e-3z" fill="#003e4b"/><path d="m112.63 26.504c0.242-0.41 0.566-0.953 0.859-1.289l-0.84-1.211-5.066 3.516c0.148 0.382 0.195 0.871 0.211 1.312l-0.66 0.457-2.539-3.66 0.656-0.457c0.418 0.18 0.851 0.383 1.16 0.656l5.066-3.516-0.843-1.21c-0.395 0.16-1.063 0.289-1.508 0.355l-0.543-0.785 2.172-1.504 4.597 6.625-2.171 1.508-0.551-0.797z" fill="#003e4b"/><path d="m110.13 34.969 0.742-0.297c0.356 0.238 0.703 0.543 0.977 0.883l5.59-2.235c-0.04-0.402 3e-3 -0.898 0.078-1.308l0.73-0.293 1.649 4.121-0.731 0.293c-0.336-0.246-0.711-0.574-0.957-0.891l-5.59 2.238c0.035 0.434-4e-3 0.895-0.097 1.313l-0.743 0.297-1.648-4.121z" fill="#003e4b"/><path d="m113.64 46.203c-0.18-0.793-0.278-1.652-0.235-2.34l2.496-0.566 0.227 0.988c-0.348 0.281-0.773 0.57-1.113 0.738-0.074 0.321-0.098 0.797 0.023 1.336 0.153 0.672 0.551 1.184 1.285 1.016 1.746-0.398 0.141-4.43 2.985-5.074 1.465-0.332 2.902 0.711 3.425 3.015 0.157 0.676 0.25 1.52 0.262 2.149l-2.406 0.547-0.223-0.973c0.36-0.305 0.817-0.613 1.141-0.766 0.051-0.214 0.031-0.668-0.051-1.027-0.172-0.746-0.601-1.121-1.242-0.976-1.594 0.363-0.129 4.488-2.91 5.117-1.531 0.347-3.113-0.754-3.664-3.184" fill="#003e4b"/><path d="m119.26 55.465c-0.078-0.656 0.398-1.238 1.082-1.32 0.683-0.083 1.289 0.371 1.367 1.027s-0.399 1.254-1.082 1.336c-0.684 0.082-1.289-0.387-1.367-1.043" fill="#003e4b"/><path d="m116.08 61.672 0.801-0.035c0.238 0.328 0.48 0.734 0.625 1.156l6.015-0.254c0.094-0.387 0.301-0.855 0.508-1.203l0.785-0.035 0.188 4.437-0.781 0.032c-0.239-0.329-0.485-0.793-0.614-1.157l-6.14 0.258 0.129 1.965c0.359 0.094 0.894 0.269 1.351 0.449l0.043 1.012-2.625 0.113-0.285-6.738z" fill="#003e4b"/><path d="m123.45 81.012-3.918-0.18c-2.398-0.117-3.566-1.687-3.473-3.957 0.118-2.766 1.563-3.656 3.5-3.574l4.208 0.176c0.125-0.274 0.394-0.614 0.593-0.821l0.785 0.031-0.164 3.915-0.785-0.032c-0.191-0.316-0.418-0.679-0.515-1.035l-3.872-0.164c-1.457-0.062-2.339 0.406-2.406 1.957-0.054 1.262 0.672 1.922 1.985 1.961l4.129 0.129c0.113-0.352 0.398-0.707 0.605-0.992l0.781 0.035-0.144 3.469-0.785-0.035c-0.18-0.239-0.442-0.586-0.524-0.883" fill="#003e4b"/><path d="m124.21 87.367-0.773-0.129c-0.286 0.328-0.579 0.731-0.75 1.074l-5.942-0.996c-0.055-0.429-0.191-0.871-0.371-1.257l-0.789-0.133-0.199 1.179c-0.196 1.168-0.403 2.207-0.524 2.934-0.5 2.984 0.75 4.332 2.078 4.555 0.95 0.16 1.957-0.344 2.34-1.649 0.09 1.09 0.758 1.668 1.563 1.805 1.422 0.238 2.312-0.703 2.691-2.961 0.188-1.121 0.356-2.527 0.481-3.269l0.195-1.153zm-5.27 2.375-0.129 0.758c-0.218 1.316-0.8 2.078-1.687 1.93-0.742-0.125-1.305-0.735-1.109-1.903 0.089-0.527 0.222-0.941 0.367-1.215l2.558 0.43zm3.586 0.602c-0.019 0.308-0.066 0.578-0.129 0.957-0.191 1.136-0.812 1.453-1.539 1.332-0.726-0.121-1.199-0.606-0.984-1.879 0.055-0.317 0.102-0.606 0.156-0.828l2.496 0.418z" fill="#003e4b"/><path d="m113.21 98.09 0.758 0.258c0.086 0.386 0.183 0.855 0.164 1.304l5.691 1.926c0.242-0.324 0.633-0.676 0.926-0.933l0.742 0.25-2.129 6.285-2.093-0.707 0.32-0.95c0.312-0.07 0.828-0.14 1.156-0.109l0.609-1.805-2.414-0.816-0.5 1.484c0.211 0.168 0.391 0.442 0.516 0.629l-0.269 0.785-2.368-0.8 0.27-0.786c0.219-0.054 0.566-0.179 0.82-0.175l0.504-1.485-2.625-0.89-0.613 1.804c0.32 0.207 0.66 0.547 0.906 0.825l-0.328 0.961-2.184-0.739 2.141-6.316z" fill="#003e4b"/><path d="m106.92 112.12c1.527-2.523 3.586-3.055 5.89-1.664 2.7 1.633 3.145 4.18 1.739 6.508-0.524 0.867-1.055 1.496-1.52 1.953l-2.465-1.488 0.539-0.895c0.497 0.047 1.036 0.176 1.446 0.332 0.289-0.164 0.601-0.496 0.84-0.89 0.691-1.145 0.191-2.399-1.469-3.399-1.574-0.953-2.945-0.668-3.969 1.027-0.324 0.54-0.59 1.227-0.664 1.879l-1.199-0.402c-0.035-0.934 0.254-2 0.832-2.961" fill="#003e4b"/><path d="m102.98 117.87 0.551 0.582c-0.105 0.383-0.242 0.844-0.465 1.231l4.118 4.367c0.371-0.168 0.882-0.297 1.257-0.391l0.539 0.57-4.828 4.555-1.515-1.609 0.726-0.684c0.309 0.082 0.797 0.262 1.071 0.442l1.386-1.305-1.746-1.856-1.14 1.079c0.109 0.246 0.136 0.57 0.16 0.793l-0.606 0.57-1.715-1.817 0.606-0.57c0.219 0.055 0.586 0.106 0.805 0.231l1.14-1.079-1.898-2.011-1.387 1.304c0.184 0.332 0.324 0.793 0.41 1.153l-0.738 0.699-1.582-1.68 4.851-4.574z" fill="#003e4b"/><path d="m90.258 135.43-3.274-6.688 1.645-0.804 6.851 3.902-2.464-4.445c-0.364 0.035-0.758-4e-3 -1.207-0.051l-0.352-0.719 3.352-1.641 0.351 0.719c-0.238 0.383-0.484 0.754-0.738 1.004l2.57 5.426c0.414-0.059 0.871-0.035 1.317 0l0.343 0.703-3.117 1.527-6.117-3.476 2.137 3.91c0.351-0.051 0.742 0.012 1.125 0.09l0.343 0.707-2.941 1.437-0.344-0.703c0.164-0.332 0.309-0.633 0.52-0.898" fill="#003e4b"/><path d="m79.762 130.66c0.793-0.176 1.652-0.269 2.34-0.223l0.554 2.5-0.988 0.223c-0.281-0.351-0.566-0.777-0.734-1.117-0.317-0.078-0.793-0.106-1.336 0.016-0.672 0.148-1.184 0.543-1.024 1.277 0.391 1.75 4.43 0.164 5.059 3.012 0.324 1.468-0.727 2.898-3.035 3.41-0.676 0.152-1.524 0.238-2.149 0.246l-0.535-2.406 0.977-0.215c0.3 0.359 0.605 0.816 0.757 1.144 0.215 0.051 0.668 0.032 1.028-0.05 0.75-0.165 1.125-0.594 0.984-1.235-0.351-1.594-4.488-0.152-5.101-2.933-0.34-1.532 0.773-3.11 3.203-3.649" fill="#003e4b"/><path d="m71.828 132.2 0.063 0.797c-0.332 0.27-0.731 0.508-1.133 0.668l0.484 6.004c0.391 0.082 0.852 0.269 1.223 0.465l0.062 0.781-4.425 0.356-0.063-0.782c0.336-0.25 0.762-0.511 1.137-0.652l-0.485-6.004c-0.421-0.094-0.855-0.27-1.226-0.48l-0.063-0.797 4.426-0.356z" fill="#003e4b"/><path d="m60.441 132.47c0.813 0.019 1.672 0.136 2.325 0.343l-0.059 2.563-1.016-0.027c-0.191-0.407-0.363-0.887-0.445-1.258-0.289-0.153-0.746-0.293-1.301-0.305-0.687-0.019-1.277 0.238-1.297 0.992-0.046 1.793 4.258 1.227 4.188 4.141-0.039 1.504-1.402 2.64-3.77 2.582-0.691-0.02-1.531-0.133-2.144-0.277l0.062-2.465 0.996 0.023c0.208 0.422 0.395 0.938 0.461 1.293 0.2 0.102 0.641 0.192 1.008 0.199 0.77 0.02 1.239-0.304 1.254-0.961 0.039-1.632-4.316-1.226-4.25-4.074 0.039-1.57 1.5-2.832 3.988-2.769" fill="#003e4b"/><path d="m49.457 135.58c0.652 0.094 1.094 0.707 0.992 1.391-0.097 0.679-0.691 1.144-1.344 1.05-0.656-0.093-1.109-0.711-1.011-1.394 0.097-0.68 0.707-1.141 1.363-1.047" fill="#003e4b"/><path d="m160.14 82.34v-8.949h-2.805v9.105c0 2.117-1.137 3.274-3.274 3.274-2.335 0-3.472-1.09-3.472-3.274v-9.105h-2.781v8.949c0 2.695 0.488 3.918 2.003 4.965 1.11 0.754 2.313 1.066 4.161 1.066 1.828 0 3.074-0.332 4.14-1.066 1.535-1.067 2.028-2.27 2.028-4.965m19.16 5.875v-14.824h-2.649v10.91l-0.132-0.266-0.133-0.379c-0.024-0.047-0.067-0.133-0.133-0.289s-0.133-0.269-0.156-0.312l-6.168-9.664h-3.227v14.691h2.668v-10.773c0.067 0.246 0.113 0.336 0.203 0.515 0.02 0.02 0.086 0.133 0.176 0.309 0.18 0.312 0.27 0.515 0.312 0.582l6.301 9.5h2.938zm9.574-14.824h-2.801v14.691h2.801v-14.691zm17.66 0h-2.937l-3.203 9.929-0.09 0.18c-0.043 0.109-0.067 0.176-0.067 0.379l0.024 0.156-0.071-0.269-0.043-0.243-0.043-0.203-3.363-9.929h-3.07l5.453 15.113h1.957l5.453-15.113zm14.113 14.691v-2.379h-6.437v-3.922h5.031v-2.379h-5.031v-3.629h6.144v-2.382h-8.945v14.691h9.238zm16.34 0-3.648-6.301c1.226-0.332 1.738-0.644 2.293-1.355 0.531-0.711 0.801-1.625 0.801-2.762 0-1.379-0.403-2.449-1.204-3.18-0.867-0.824-1.843-1.093-3.984-1.093h-4.894v14.691h2.8v-5.875h1.407l3.359 5.875h3.07zm-3.445-10.348c0 1.469-0.781 2.094-2.563 2.094h-1.828v-4.055h1.828c1.829 0 2.563 0.555 2.563 1.961m18.168-3.363c-0.977-0.465-1.379-0.621-2.09-0.844-0.91-0.269-1.781-0.379-2.758-0.379-1.718 0-2.629 0.243-3.699 0.977-0.465 0.336-0.844 0.711-1.09 1.09-0.351 0.558-0.578 1.312-0.578 2.047 0 1.605 0.801 2.586 3.406 4.078l2.27 1.289c0.961 0.535 1.293 0.957 1.293 1.582 0 0.891-0.848 1.469-2.137 1.469-0.582 0-1.383-0.157-2.117-0.422-0.578-0.223-1.023-0.446-2.09-1.024l-1.18 2.582c0.422 0.2 0.758 0.356 0.957 0.442 1.536 0.715 2.024 0.89 3.071 1.023 0.422 0.067 0.867 0.09 1.312 0.09 3.25 0 5.164-1.535 5.164-4.16 0-1.024-0.379-2.004-1-2.629-0.691-0.687-2.16-1.625-4.406-2.828-1.047-0.555-1.406-0.934-1.406-1.559 0-0.824 0.847-1.355 2.16-1.355 0.98 0 2.25 0.355 3.809 1.047l1.109-2.516zm8.324-0.98h-2.801v14.691h2.801v-14.691zm16.488 2.382v-2.382h-11.617v2.382h4.406v12.309h2.801v-12.309h4.41zm11.649-3.875c0-0.687-0.555-1.222-1.223-1.222s-1.199 0.535-1.199 1.222c0 0.668 0.531 1.204 1.199 1.204s1.223-0.536 1.223-1.204m-3.672-0.066c0-0.664-0.535-1.199-1.203-1.199-0.664 0-1.223 0.535-1.223 1.199 0 0.668 0.559 1.223 1.223 1.223 0.668 0 1.203-0.555 1.203-1.223m7.102 16.25-5.321-14.691h-2.515l-5.317 14.691h2.938l1.199-3.629h4.918l1.156 3.629h2.942zm-4.852-6.008h-3.406l1.691-5.32 1.715 5.32zm18.391-6.301v-2.382h-11.618v2.382h4.411v12.309h2.8v-12.309h4.407zm23.664 12.309v-2.379h-7.836l7.836-10.488v-1.824h-11.621v2.382h7.836l-7.969 10.485v1.824h11.754zm17.539-5.742v-8.949h-2.805v9.105c0 2.117-1.133 3.274-3.273 3.274-2.336 0-3.473-1.09-3.473-3.274v-9.105h-2.781v8.949c0 2.695 0.488 3.918 2.004 4.965 1.109 0.754 2.312 1.066 4.164 1.066 1.824 0 3.07-0.332 4.14-1.066 1.532-1.067 2.024-2.27 2.024-4.965m23.351 5.742v-2.379h-6.011v-12.312h-2.805v14.691h8.816zm14.086-16.184c0-0.687-0.558-1.222-1.222-1.222-0.668 0-1.204 0.535-1.204 1.222 0 0.668 0.536 1.204 1.204 1.204 0.664 0 1.222-0.536 1.222-1.204m-4.543-0.019c0-0.668-0.531-1.223-1.222-1.223-0.668 0-1.204 0.555-1.204 1.223 0 0.664 0.536 1.199 1.204 1.199 0.691 0 1.222-0.535 1.222-1.199m7.324 10.461v-8.949h-2.804v9.105c0 2.117-1.133 3.274-3.27 3.274-2.34 0-3.476-1.09-3.476-3.274v-9.105h-2.778v8.949c0 2.695 0.489 3.918 2 4.965 1.114 0.754 2.317 1.066 4.164 1.066 1.825 0 3.071-0.332 4.137-1.066 1.539-1.067 2.027-2.27 2.027-4.965m16.946 1.824c0-2.293-1.399-3.738-3.625-3.781 1.156-0.067 1.758-0.336 2.402-1.067 0.535-0.625 0.844-1.496 0.844-2.32 0-0.957-0.441-2.004-1.156-2.625-0.801-0.734-1.758-0.98-3.672-0.98h-5.317v14.691h5.985c2.937 0 4.539-1.379 4.539-3.918m-3.492-6.676c0 1.246-0.844 1.914-2.426 1.914h-1.672v-3.785h1.828c1.426 0 2.27 0.688 2.27 1.871m0.425 6.367c0 0.758-0.379 1.403-1.003 1.715-0.422 0.2-0.825 0.266-1.692 0.266h-1.828v-4.055h1.828c1.738 0 2.695 0.735 2.695 2.074m18.079 4.227v-2.379h-6.434v-3.922h5.031v-2.379h-5.031v-3.629h6.144v-2.382h-8.945v14.691h9.235zm16.668-13.555c-1.27-0.957-2.739-1.402-4.61-1.402-2.426 0-4.074 0.602-5.539 2.047-1.449 1.422-2.25 3.359-2.25 5.5 0 2.293 0.914 4.476 2.473 5.875 1.379 1.246 3.023 1.824 5.316 1.824 0.871 0 1.649-0.09 2.36-0.246 0.667-0.152 1.046-0.289 1.984-0.711l-0.512-2.355c-1.316 0.511-2.183 0.687-3.23 0.687-3.203 0-5.297-2.07-5.297-5.23 0-2.786 2.023-4.789 4.851-4.789 1.293 0 2.426 0.335 3.383 1.023l1.071-2.223zm16.109 13.555-5.32-7.543 5.054-7.148h-3.226l-4.61 6.859v-6.859h-2.8v14.691h2.8v-6.988l4.895 6.988h3.207z" fill="#003e4b"/></svg>
