<?xml version="1.0" encoding="UTF-8" standalone="no"?>
<!DOCTYPE svg PUBLIC "-//W3C//DTD SVG 1.1//EN" "http://www.w3.org/Graphics/SVG/1.1/DTD/svg11.dtd">
<svg width="100%" height="100%" viewBox="0 0 512 512" version="1.1" xmlns="http://www.w3.org/2000/svg" xmlns:xlink="http://www.w3.org/1999/xlink" xml:space="preserve" xmlns:serif="http://www.serif.com/" style="fill-rule:evenodd;clip-rule:evenodd;stroke-linejoin:round;stroke-miterlimit:2;">
    <g>
        <path d="M442.287,46.176L69.713,46.176C36.839,46.176 10.188,72.827 10.188,105.701L10.188,452.475C10.188,485.349 36.839,512 69.713,512L442.287,512C475.161,512 501.812,485.349 501.812,452.475L501.812,105.701C501.812,72.826 475.161,46.176 442.287,46.176Z" style="fill:rgb(235,240,243);fill-rule:nonzero;"/>
        <path d="M501.812,158.017L501.812,85.893C501.812,53.019 475.161,26.368 442.287,26.368L69.713,26.368C36.839,26.368 10.188,53.019 10.188,85.893L10.188,158.017L501.812,158.017Z" style="fill:rgb(195,96,3);fill-rule:nonzero;"/>
        <path d="M501.812,171.474L501.812,105.701C501.812,72.827 475.161,46.176 442.287,46.176L69.713,46.176C36.839,46.176 10.188,72.827 10.188,105.701L10.188,171.474L501.812,171.474Z" style="fill:rgb(236,116,4);fill-rule:nonzero;"/>
        <path d="M107.689,78.145C96.215,78.145 86.914,87.446 86.914,98.92C86.914,110.394 96.215,119.694 107.689,119.694C119.163,119.694 128.463,110.392 128.463,98.92C128.464,87.446 119.163,78.145 107.689,78.145Z" style="fill:rgb(195,96,3);fill-rule:nonzero;"/>
        <path d="M107.689,0C101.552,0 96.575,4.977 96.575,11.114L96.575,97.71C96.575,103.849 101.552,108.824 107.689,108.824C113.827,108.824 118.803,103.849 118.803,97.71L118.803,11.114C118.803,4.977 113.828,-0 107.689,-0Z" style="fill:rgb(0,97,122);fill-rule:nonzero;"/>
        <path d="M206.563,78.145C195.089,78.145 185.788,87.446 185.788,98.92C185.788,110.394 195.089,119.694 206.563,119.694C218.037,119.694 227.337,110.392 227.337,98.92C227.338,87.446 218.037,78.145 206.563,78.145Z" style="fill:rgb(195,96,3);fill-rule:nonzero;"/>
        <path d="M206.563,0C200.425,0 195.449,4.977 195.449,11.114L195.449,97.71C195.449,103.849 200.425,108.824 206.563,108.824C212.701,108.824 217.677,103.849 217.677,97.71L217.677,11.114C217.677,4.977 212.701,-0 206.563,-0Z" style="fill:rgb(0,97,122);fill-rule:nonzero;"/>
        <path d="M305.437,78.145C293.963,78.145 284.662,87.446 284.662,98.92C284.662,110.394 293.963,119.694 305.437,119.694C316.911,119.694 326.211,110.392 326.211,98.92C326.211,87.446 316.911,78.145 305.437,78.145Z" style="fill:rgb(195,96,3);fill-rule:nonzero;"/>
        <path d="M305.437,0C299.299,0 294.323,4.977 294.323,11.114L294.323,97.71C294.323,103.849 299.299,108.824 305.437,108.824C311.575,108.824 316.551,103.849 316.551,97.71L316.551,11.114C316.551,4.977 311.575,-0 305.437,-0Z" style="fill:rgb(0,97,122);fill-rule:nonzero;"/>
        <path d="M404.311,78.145C392.837,78.145 383.536,87.446 383.536,98.92C383.536,110.394 392.837,119.694 404.311,119.694C415.785,119.694 425.084,110.392 425.084,98.92C425.084,87.446 415.783,78.145 404.311,78.145Z" style="fill:rgb(195,96,3);fill-rule:nonzero;"/>
        <path d="M404.309,0C398.172,0 393.195,4.977 393.195,11.114L393.195,97.71C393.195,103.849 398.172,108.824 404.309,108.824C410.447,108.824 415.424,103.849 415.424,97.71L415.424,11.114C415.424,4.977 410.448,-0 404.309,-0Z" style="fill:rgb(0,97,122);fill-rule:nonzero;"/>
        <g id="imis_kurz.svg" transform="matrix(2.59104,0,0,2.59104,263.301,320.776)">
            <g transform="matrix(1,0,0,1,-76.5,-25)">
                <rect x="0" y="0" width="9.054" height="47.472" style="fill:rgb(236,116,4);"/>
                <path d="M152.801,3.958C149.636,2.448 148.346,1.944 146.044,1.227C143.099,0.365 140.293,0.006 137.122,0.006C131.579,0.006 128.634,0.799 125.18,3.165C123.67,4.247 122.449,5.468 121.663,6.688C120.511,8.488 119.794,10.929 119.794,13.307C119.794,18.485 122.38,21.656 130.792,26.476L138.135,30.647C141.23,32.378 142.306,33.743 142.306,35.756C142.306,38.638 139.576,40.507 135.398,40.507C133.523,40.507 130.931,40.003 128.559,39.141C126.69,38.418 125.255,37.701 121.801,35.832L117.995,44.175C119.36,44.817 120.436,45.32 121.084,45.609C126.042,47.906 127.627,48.485 131.006,48.913C132.372,49.133 133.812,49.202 135.253,49.202C145.761,49.202 151.939,44.244 151.939,35.756C151.939,32.447 150.718,29.282 148.705,27.269C146.478,25.035 141.734,22.015 134.46,18.127C131.075,16.327 129.924,15.107 129.924,13.093C129.924,10.426 132.661,8.702 136.908,8.702C140.079,8.702 144.175,9.853 149.208,12.08L152.801,3.958Z" style="fill:rgb(236,116,4);fill-rule:nonzero;"/>
                <path d="M76.325,47.472L76.325,0.006L65.472,0.006L52.303,33.888C51.875,35.039 51.73,35.329 51.441,37.556C51.227,35.756 51.007,35.253 50.503,33.888L37.838,0.006L26.985,0.006L26.985,47.472L35.176,47.472L35.176,12.376C35.9,16.409 35.969,17.196 36.976,19.932L46.904,47.472L55.04,47.472L65.906,19.429C67.416,15.472 67.347,15.113 67.705,12.665L67.705,47.472L76.325,47.472Z" style="fill:rgb(236,116,4);fill-rule:nonzero;"/>
                <rect x="94.117" y="0.006" width="9.054" height="47.472" style="fill:rgb(236,116,4);"/>
            </g>
        </g>
    </g>
</svg>
